<svg width="714" height="382" viewBox="0 0 714 382" fill="none" xmlns="http://www.w3.org/2000/svg">
<rect x="0.5" width="713" height="382" fill="white"/>
<rect x="344.75" y="159.25" width="142.5" height="64.5" rx="7.75" fill="#F4FBFF" stroke="#E2E2E2" stroke-width="0.5"/>
<path d="M375.845 196L373.87 192.61H372.562V196H371.479V187.709H374.156C374.782 187.709 375.31 187.816 375.738 188.03C376.174 188.244 376.499 188.534 376.713 188.899C376.927 189.263 377.034 189.68 377.034 190.148C377.034 190.719 376.868 191.222 376.535 191.658C376.21 192.094 375.718 192.384 375.06 192.527L377.141 196H375.845ZM372.562 191.742H374.156C374.743 191.742 375.183 191.599 375.476 191.313C375.77 191.02 375.916 190.631 375.916 190.148C375.916 189.656 375.77 189.275 375.476 189.006C375.191 188.736 374.751 188.601 374.156 188.601H372.562V191.742ZM384.664 192.491C384.664 192.697 384.652 192.915 384.628 193.145H379.418C379.458 193.787 379.676 194.291 380.072 194.656C380.477 195.013 380.965 195.191 381.536 195.191C382.003 195.191 382.392 195.084 382.701 194.87C383.018 194.648 383.241 194.354 383.367 193.99H384.533C384.359 194.616 384.01 195.128 383.486 195.524C382.963 195.913 382.313 196.107 381.536 196.107C380.917 196.107 380.362 195.968 379.87 195.691C379.386 195.413 379.006 195.021 378.728 194.513C378.451 193.998 378.312 193.403 378.312 192.729C378.312 192.055 378.447 191.464 378.716 190.956C378.986 190.449 379.363 190.06 379.846 189.791C380.338 189.513 380.901 189.374 381.536 189.374C382.154 189.374 382.701 189.509 383.177 189.779C383.653 190.048 384.018 190.421 384.271 190.897C384.533 191.365 384.664 191.896 384.664 192.491ZM383.546 192.265C383.546 191.853 383.455 191.5 383.272 191.206C383.09 190.905 382.84 190.679 382.523 190.528C382.214 190.37 381.869 190.29 381.488 190.29C380.941 190.29 380.473 190.465 380.084 190.814C379.704 191.163 379.486 191.646 379.43 192.265H383.546ZM388.4 196.107C387.901 196.107 387.453 196.024 387.056 195.857C386.66 195.683 386.347 195.445 386.117 195.144C385.887 194.834 385.76 194.481 385.736 194.085H386.854C386.886 194.41 387.036 194.676 387.306 194.882C387.584 195.088 387.944 195.191 388.389 195.191C388.801 195.191 389.126 195.1 389.364 194.918C389.602 194.735 389.721 194.505 389.721 194.228C389.721 193.942 389.594 193.732 389.34 193.597C389.086 193.454 388.694 193.316 388.163 193.181C387.679 193.054 387.282 192.927 386.973 192.8C386.672 192.665 386.41 192.471 386.188 192.217C385.974 191.956 385.867 191.615 385.867 191.194C385.867 190.861 385.966 190.556 386.164 190.278C386.362 190.001 386.644 189.783 387.009 189.624C387.374 189.458 387.79 189.374 388.258 189.374C388.979 189.374 389.562 189.557 390.006 189.922C390.45 190.286 390.688 190.786 390.72 191.42H389.638C389.614 191.079 389.475 190.806 389.221 190.6C388.975 190.393 388.642 190.29 388.222 190.29C387.833 190.29 387.524 190.374 387.294 190.54C387.064 190.707 386.949 190.925 386.949 191.194C386.949 191.408 387.017 191.587 387.151 191.73C387.294 191.864 387.469 191.975 387.675 192.063C387.889 192.142 388.182 192.233 388.555 192.336C389.023 192.463 389.404 192.59 389.697 192.717C389.99 192.836 390.24 193.018 390.446 193.264C390.661 193.51 390.772 193.831 390.78 194.228C390.78 194.584 390.68 194.906 390.482 195.191C390.284 195.477 390.002 195.703 389.638 195.869C389.281 196.028 388.868 196.107 388.4 196.107ZM395.543 189.362C396.035 189.362 396.479 189.47 396.875 189.684C397.272 189.89 397.581 190.203 397.803 190.623C398.033 191.044 398.148 191.555 398.148 192.158V196H397.078V192.312C397.078 191.662 396.915 191.167 396.59 190.826C396.265 190.477 395.821 190.302 395.258 190.302C394.687 190.302 394.231 190.481 393.89 190.837C393.557 191.194 393.39 191.714 393.39 192.396V196H392.308V187.198H393.39V190.409C393.604 190.076 393.898 189.818 394.27 189.636C394.651 189.454 395.075 189.362 395.543 189.362ZM399.512 192.717C399.512 192.051 399.647 191.468 399.916 190.968C400.186 190.461 400.555 190.068 401.023 189.791C401.498 189.513 402.026 189.374 402.605 189.374C403.176 189.374 403.671 189.497 404.092 189.743C404.512 189.989 404.825 190.298 405.031 190.671V189.481H406.126V196H405.031V194.787C404.817 195.167 404.496 195.485 404.068 195.738C403.647 195.984 403.156 196.107 402.593 196.107C402.014 196.107 401.49 195.964 401.023 195.679C400.555 195.393 400.186 194.993 399.916 194.477C399.647 193.962 399.512 193.375 399.512 192.717ZM405.031 192.729C405.031 192.237 404.932 191.809 404.734 191.444C404.536 191.079 404.266 190.802 403.925 190.611C403.592 190.413 403.223 190.314 402.819 190.314C402.414 190.314 402.046 190.409 401.712 190.6C401.379 190.79 401.114 191.067 400.916 191.432C400.717 191.797 400.618 192.225 400.618 192.717C400.618 193.217 400.717 193.653 400.916 194.025C401.114 194.39 401.379 194.672 401.712 194.87C402.046 195.06 402.414 195.155 402.819 195.155C403.223 195.155 403.592 195.06 403.925 194.87C404.266 194.672 404.536 194.39 404.734 194.025C404.932 193.653 405.031 193.22 405.031 192.729ZM409.037 190.54C409.228 190.167 409.497 189.878 409.846 189.672C410.203 189.466 410.635 189.362 411.143 189.362V190.481H410.857C409.644 190.481 409.037 191.139 409.037 192.455V196H407.955V189.481H409.037V190.54ZM418.34 192.491C418.34 192.697 418.328 192.915 418.304 193.145H413.094C413.134 193.787 413.352 194.291 413.748 194.656C414.153 195.013 414.641 195.191 415.211 195.191C415.679 195.191 416.068 195.084 416.377 194.87C416.694 194.648 416.916 194.354 417.043 193.99H418.209C418.035 194.616 417.686 195.128 417.162 195.524C416.639 195.913 415.989 196.107 415.211 196.107C414.593 196.107 414.038 195.968 413.546 195.691C413.062 195.413 412.682 195.021 412.404 194.513C412.127 193.998 411.988 193.403 411.988 192.729C411.988 192.055 412.123 191.464 412.392 190.956C412.662 190.449 413.039 190.06 413.522 189.791C414.014 189.513 414.577 189.374 415.211 189.374C415.83 189.374 416.377 189.509 416.853 189.779C417.329 190.048 417.694 190.421 417.947 190.897C418.209 191.365 418.34 191.896 418.34 192.491ZM417.222 192.265C417.222 191.853 417.131 191.5 416.948 191.206C416.766 190.905 416.516 190.679 416.199 190.528C415.89 190.37 415.545 190.29 415.164 190.29C414.617 190.29 414.149 190.465 413.76 190.814C413.38 191.163 413.162 191.646 413.106 192.265H417.222ZM424.022 190.683C424.237 190.31 424.554 190.001 424.974 189.755C425.402 189.501 425.898 189.374 426.461 189.374C427.04 189.374 427.563 189.513 428.031 189.791C428.507 190.068 428.88 190.461 429.149 190.968C429.419 191.468 429.554 192.051 429.554 192.717C429.554 193.375 429.419 193.962 429.149 194.477C428.88 194.993 428.507 195.393 428.031 195.679C427.563 195.964 427.04 196.107 426.461 196.107C425.906 196.107 425.414 195.984 424.986 195.738C424.566 195.485 424.245 195.171 424.022 194.799V199.093H422.94V189.481H424.022V190.683ZM428.448 192.717C428.448 192.225 428.348 191.797 428.15 191.432C427.952 191.067 427.682 190.79 427.341 190.6C427.008 190.409 426.639 190.314 426.235 190.314C425.838 190.314 425.47 190.413 425.129 190.611C424.796 190.802 424.526 191.083 424.32 191.456C424.122 191.821 424.022 192.245 424.022 192.729C424.022 193.22 424.122 193.653 424.32 194.025C424.526 194.39 424.796 194.672 425.129 194.87C425.47 195.06 425.838 195.155 426.235 195.155C426.639 195.155 427.008 195.06 427.341 194.87C427.682 194.672 427.952 194.39 428.15 194.025C428.348 193.653 428.448 193.217 428.448 192.717ZM434.214 189.362C434.706 189.362 435.15 189.47 435.546 189.684C435.943 189.89 436.252 190.203 436.474 190.623C436.704 191.044 436.819 191.555 436.819 192.158V196H435.749V192.312C435.749 191.662 435.586 191.167 435.261 190.826C434.936 190.477 434.492 190.302 433.929 190.302C433.358 190.302 432.902 190.481 432.561 190.837C432.228 191.194 432.061 191.714 432.061 192.396V196H430.979V187.198H432.061V190.409C432.275 190.076 432.569 189.818 432.941 189.636C433.322 189.454 433.746 189.362 434.214 189.362ZM441.43 196.107C440.82 196.107 440.265 195.968 439.765 195.691C439.273 195.413 438.885 195.021 438.599 194.513C438.322 193.998 438.183 193.403 438.183 192.729C438.183 192.063 438.326 191.476 438.611 190.968C438.905 190.453 439.301 190.06 439.801 189.791C440.3 189.513 440.859 189.374 441.478 189.374C442.096 189.374 442.655 189.513 443.155 189.791C443.655 190.06 444.047 190.449 444.333 190.956C444.626 191.464 444.773 192.055 444.773 192.729C444.773 193.403 444.622 193.998 444.321 194.513C444.027 195.021 443.627 195.413 443.119 195.691C442.612 195.968 442.049 196.107 441.43 196.107ZM441.43 195.155C441.819 195.155 442.184 195.064 442.525 194.882C442.866 194.699 443.139 194.426 443.345 194.061C443.56 193.696 443.667 193.252 443.667 192.729C443.667 192.205 443.563 191.761 443.357 191.397C443.151 191.032 442.881 190.762 442.548 190.588C442.215 190.405 441.855 190.314 441.466 190.314C441.069 190.314 440.705 190.405 440.372 190.588C440.046 190.762 439.785 191.032 439.587 191.397C439.388 191.761 439.289 192.205 439.289 192.729C439.289 193.26 439.384 193.708 439.575 194.073C439.773 194.438 440.035 194.711 440.36 194.894C440.685 195.068 441.042 195.155 441.43 195.155ZM447.516 190.374V194.216C447.516 194.533 447.584 194.759 447.719 194.894C447.853 195.021 448.087 195.084 448.42 195.084H449.217V196H448.242C447.639 196 447.187 195.861 446.886 195.584C446.585 195.306 446.434 194.85 446.434 194.216V190.374H445.589V189.481H446.434V187.84H447.516V189.481H449.217V190.374H447.516ZM453.372 196.107C452.761 196.107 452.206 195.968 451.707 195.691C451.215 195.413 450.826 195.021 450.541 194.513C450.263 193.998 450.125 193.403 450.125 192.729C450.125 192.063 450.267 191.476 450.553 190.968C450.846 190.453 451.243 190.06 451.742 189.791C452.242 189.513 452.801 189.374 453.42 189.374C454.038 189.374 454.597 189.513 455.097 189.791C455.596 190.06 455.989 190.449 456.274 190.956C456.568 191.464 456.714 192.055 456.714 192.729C456.714 193.403 456.564 193.998 456.262 194.513C455.969 195.021 455.569 195.413 455.061 195.691C454.554 195.968 453.99 196.107 453.372 196.107ZM453.372 195.155C453.761 195.155 454.125 195.064 454.466 194.882C454.807 194.699 455.081 194.426 455.287 194.061C455.501 193.696 455.608 193.252 455.608 192.729C455.608 192.205 455.505 191.761 455.299 191.397C455.093 191.032 454.823 190.762 454.49 190.588C454.157 190.405 453.796 190.314 453.408 190.314C453.011 190.314 452.646 190.405 452.313 190.588C451.988 190.762 451.726 191.032 451.528 191.397C451.33 191.761 451.231 192.205 451.231 192.729C451.231 193.26 451.326 193.708 451.516 194.073C451.715 194.438 451.976 194.711 452.301 194.894C452.627 195.068 452.983 195.155 453.372 195.155ZM460.445 196.107C459.946 196.107 459.498 196.024 459.101 195.857C458.705 195.683 458.391 195.445 458.162 195.144C457.932 194.834 457.805 194.481 457.781 194.085H458.899C458.931 194.41 459.081 194.676 459.351 194.882C459.629 195.088 459.989 195.191 460.434 195.191C460.846 195.191 461.171 195.1 461.409 194.918C461.647 194.735 461.766 194.505 461.766 194.228C461.766 193.942 461.639 193.732 461.385 193.597C461.131 193.454 460.739 193.316 460.207 193.181C459.724 193.054 459.327 192.927 459.018 192.8C458.717 192.665 458.455 192.471 458.233 192.217C458.019 191.956 457.912 191.615 457.912 191.194C457.912 190.861 458.011 190.556 458.209 190.278C458.407 190.001 458.689 189.783 459.054 189.624C459.418 189.458 459.835 189.374 460.303 189.374C461.024 189.374 461.607 189.557 462.051 189.922C462.495 190.286 462.733 190.786 462.765 191.42H461.683C461.659 191.079 461.52 190.806 461.266 190.6C461.02 190.393 460.687 190.29 460.267 190.29C459.878 190.29 459.569 190.374 459.339 190.54C459.109 190.707 458.994 190.925 458.994 191.194C458.994 191.408 459.062 191.587 459.196 191.73C459.339 191.864 459.514 191.975 459.72 192.063C459.934 192.142 460.227 192.233 460.6 192.336C461.068 192.463 461.449 192.59 461.742 192.717C462.035 192.836 462.285 193.018 462.491 193.264C462.705 193.51 462.817 193.831 462.824 194.228C462.824 194.584 462.725 194.906 462.527 195.191C462.329 195.477 462.047 195.703 461.683 195.869C461.326 196.028 460.913 196.107 460.445 196.107Z" fill="black"/>
<rect x="344.75" y="254.25" width="142.5" height="64.5" rx="7.75" fill="#F4FBFF" stroke="#E2E2E2" stroke-width="0.5"/>
<path d="M373.426 286.849C373.426 286.04 373.609 285.314 373.973 284.672C374.338 284.021 374.834 283.514 375.46 283.149C376.095 282.784 376.797 282.602 377.566 282.602C378.47 282.602 379.259 282.82 379.933 283.256C380.607 283.692 381.099 284.311 381.408 285.112H380.111C379.881 284.612 379.548 284.228 379.112 283.958C378.684 283.688 378.168 283.554 377.566 283.554C376.987 283.554 376.467 283.688 376.008 283.958C375.548 284.228 375.187 284.612 374.925 285.112C374.663 285.604 374.533 286.182 374.533 286.849C374.533 287.507 374.663 288.086 374.925 288.585C375.187 289.077 375.548 289.458 376.008 289.727C376.467 289.997 376.987 290.132 377.566 290.132C378.168 290.132 378.684 290.001 379.112 289.739C379.548 289.469 379.881 289.085 380.111 288.585H381.408C381.099 289.378 380.607 289.993 379.933 290.429C379.259 290.857 378.47 291.071 377.566 291.071C376.797 291.071 376.095 290.893 375.46 290.536C374.834 290.171 374.338 289.668 373.973 289.025C373.609 288.383 373.426 287.657 373.426 286.849ZM385.862 291.107C385.252 291.107 384.696 290.968 384.197 290.691C383.705 290.413 383.317 290.021 383.031 289.513C382.754 288.998 382.615 288.403 382.615 287.729C382.615 287.063 382.758 286.476 383.043 285.968C383.336 285.453 383.733 285.06 384.233 284.791C384.732 284.513 385.291 284.374 385.91 284.374C386.528 284.374 387.087 284.513 387.587 284.791C388.087 285.06 388.479 285.449 388.765 285.956C389.058 286.464 389.205 287.055 389.205 287.729C389.205 288.403 389.054 288.998 388.753 289.513C388.459 290.021 388.059 290.413 387.551 290.691C387.044 290.968 386.481 291.107 385.862 291.107ZM385.862 290.155C386.251 290.155 386.616 290.064 386.957 289.882C387.298 289.699 387.571 289.426 387.777 289.061C387.991 288.696 388.099 288.252 388.099 287.729C388.099 287.205 387.995 286.761 387.789 286.397C387.583 286.032 387.313 285.762 386.98 285.588C386.647 285.405 386.286 285.314 385.898 285.314C385.501 285.314 385.137 285.405 384.804 285.588C384.478 285.762 384.217 286.032 384.018 286.397C383.82 286.761 383.721 287.205 383.721 287.729C383.721 288.26 383.816 288.708 384.007 289.073C384.205 289.438 384.467 289.711 384.792 289.894C385.117 290.068 385.474 290.155 385.862 290.155ZM391.71 282.198V291H390.628V282.198H391.71ZM394.638 282.198V291H393.555V282.198H394.638ZM402.43 287.491C402.43 287.697 402.418 287.915 402.395 288.145H397.184C397.224 288.787 397.442 289.291 397.839 289.656C398.243 290.013 398.731 290.191 399.302 290.191C399.77 290.191 400.158 290.084 400.468 289.87C400.785 289.648 401.007 289.354 401.134 288.99H402.299C402.125 289.616 401.776 290.128 401.253 290.524C400.729 290.913 400.079 291.107 399.302 291.107C398.683 291.107 398.128 290.968 397.637 290.691C397.153 290.413 396.772 290.021 396.495 289.513C396.217 288.998 396.078 288.403 396.078 287.729C396.078 287.055 396.213 286.464 396.483 285.956C396.752 285.449 397.129 285.06 397.613 284.791C398.104 284.513 398.667 284.374 399.302 284.374C399.92 284.374 400.468 284.509 400.943 284.779C401.419 285.048 401.784 285.421 402.038 285.897C402.299 286.365 402.43 286.896 402.43 287.491ZM401.312 287.265C401.312 286.853 401.221 286.5 401.039 286.206C400.856 285.905 400.606 285.679 400.289 285.528C399.98 285.37 399.635 285.29 399.254 285.29C398.707 285.29 398.239 285.465 397.851 285.814C397.47 286.163 397.252 286.646 397.196 287.265H401.312ZM403.455 287.729C403.455 287.055 403.589 286.468 403.859 285.968C404.129 285.461 404.501 285.068 404.977 284.791C405.461 284.513 406.012 284.374 406.631 284.374C407.432 284.374 408.09 284.569 408.605 284.957C409.129 285.346 409.474 285.885 409.64 286.575H408.474C408.363 286.178 408.145 285.865 407.82 285.635C407.503 285.405 407.106 285.29 406.631 285.29C406.012 285.29 405.513 285.504 405.132 285.933C404.751 286.353 404.561 286.952 404.561 287.729C404.561 288.514 404.751 289.121 405.132 289.549C405.513 289.977 406.012 290.191 406.631 290.191C407.106 290.191 407.503 290.08 407.82 289.858C408.137 289.636 408.355 289.319 408.474 288.906H409.64C409.466 289.573 409.117 290.108 408.593 290.512C408.07 290.909 407.416 291.107 406.631 291.107C406.012 291.107 405.461 290.968 404.977 290.691C404.501 290.413 404.129 290.021 403.859 289.513C403.589 289.006 403.455 288.411 403.455 287.729ZM412.405 285.374V289.216C412.405 289.533 412.472 289.759 412.607 289.894C412.742 290.021 412.976 290.084 413.309 290.084H414.106V291H413.13C412.528 291 412.076 290.861 411.774 290.584C411.473 290.306 411.322 289.85 411.322 289.216V285.374H410.478V284.481H411.322V282.84H412.405V284.481H414.106V285.374H412.405ZM419.671 285.683C419.885 285.31 420.202 285.001 420.623 284.755C421.051 284.501 421.547 284.374 422.11 284.374C422.689 284.374 423.212 284.513 423.68 284.791C424.156 285.068 424.528 285.461 424.798 285.968C425.068 286.468 425.202 287.051 425.202 287.717C425.202 288.375 425.068 288.962 424.798 289.477C424.528 289.993 424.156 290.393 423.68 290.679C423.212 290.964 422.689 291.107 422.11 291.107C421.555 291.107 421.063 290.984 420.635 290.738C420.214 290.485 419.893 290.171 419.671 289.799V294.093H418.589V284.481H419.671V285.683ZM424.096 287.717C424.096 287.225 423.997 286.797 423.799 286.432C423.601 286.067 423.331 285.79 422.99 285.6C422.657 285.409 422.288 285.314 421.884 285.314C421.487 285.314 421.118 285.413 420.777 285.611C420.444 285.802 420.175 286.083 419.969 286.456C419.77 286.821 419.671 287.245 419.671 287.729C419.671 288.22 419.77 288.653 419.969 289.025C420.175 289.39 420.444 289.672 420.777 289.87C421.118 290.06 421.487 290.155 421.884 290.155C422.288 290.155 422.657 290.06 422.99 289.87C423.331 289.672 423.601 289.39 423.799 289.025C423.997 288.653 424.096 288.217 424.096 287.717ZM429.863 284.362C430.354 284.362 430.798 284.47 431.195 284.684C431.592 284.89 431.901 285.203 432.123 285.623C432.353 286.044 432.468 286.555 432.468 287.158V291H431.397V287.312C431.397 286.662 431.235 286.167 430.91 285.826C430.584 285.477 430.14 285.302 429.577 285.302C429.006 285.302 428.55 285.481 428.209 285.837C427.876 286.194 427.71 286.714 427.71 287.396V291H426.627V282.198H427.71V285.409C427.924 285.076 428.217 284.818 428.59 284.636C428.971 284.454 429.395 284.362 429.863 284.362ZM437.079 291.107C436.468 291.107 435.913 290.968 435.414 290.691C434.922 290.413 434.533 290.021 434.248 289.513C433.97 288.998 433.832 288.403 433.832 287.729C433.832 287.063 433.974 286.476 434.26 285.968C434.553 285.453 434.95 285.06 435.449 284.791C435.949 284.513 436.508 284.374 437.127 284.374C437.745 284.374 438.304 284.513 438.804 284.791C439.303 285.06 439.696 285.449 439.981 285.956C440.275 286.464 440.421 287.055 440.421 287.729C440.421 288.403 440.271 288.998 439.969 289.513C439.676 290.021 439.276 290.413 438.768 290.691C438.261 290.968 437.697 291.107 437.079 291.107ZM437.079 290.155C437.468 290.155 437.832 290.064 438.173 289.882C438.514 289.699 438.788 289.426 438.994 289.061C439.208 288.696 439.315 288.252 439.315 287.729C439.315 287.205 439.212 286.761 439.006 286.397C438.8 286.032 438.53 285.762 438.197 285.588C437.864 285.405 437.503 285.314 437.115 285.314C436.718 285.314 436.353 285.405 436.02 285.588C435.695 285.762 435.433 286.032 435.235 286.397C435.037 286.761 434.938 287.205 434.938 287.729C434.938 288.26 435.033 288.708 435.223 289.073C435.422 289.438 435.683 289.711 436.008 289.894C436.334 290.068 436.69 290.155 437.079 290.155ZM443.165 285.374V289.216C443.165 289.533 443.233 289.759 443.367 289.894C443.502 290.021 443.736 290.084 444.069 290.084H444.866V291H443.891C443.288 291 442.836 290.861 442.535 290.584C442.233 290.306 442.083 289.85 442.083 289.216V285.374H441.238V284.481H442.083V282.84H443.165V284.481H444.866V285.374H443.165ZM449.021 291.107C448.41 291.107 447.855 290.968 447.355 290.691C446.864 290.413 446.475 290.021 446.19 289.513C445.912 288.998 445.773 288.403 445.773 287.729C445.773 287.063 445.916 286.476 446.201 285.968C446.495 285.453 446.891 285.06 447.391 284.791C447.891 284.513 448.45 284.374 449.068 284.374C449.687 284.374 450.246 284.513 450.745 284.791C451.245 285.06 451.638 285.449 451.923 285.956C452.216 286.464 452.363 287.055 452.363 287.729C452.363 288.403 452.212 288.998 451.911 289.513C451.618 290.021 451.217 290.413 450.71 290.691C450.202 290.968 449.639 291.107 449.021 291.107ZM449.021 290.155C449.409 290.155 449.774 290.064 450.115 289.882C450.456 289.699 450.73 289.426 450.936 289.061C451.15 288.696 451.257 288.252 451.257 287.729C451.257 287.205 451.154 286.761 450.948 286.397C450.741 286.032 450.472 285.762 450.139 285.588C449.806 285.405 449.445 285.314 449.056 285.314C448.66 285.314 448.295 285.405 447.962 285.588C447.637 285.762 447.375 286.032 447.177 286.397C446.979 286.761 446.879 287.205 446.879 287.729C446.879 288.26 446.975 288.708 447.165 289.073C447.363 289.438 447.625 289.711 447.95 289.894C448.275 290.068 448.632 290.155 449.021 290.155ZM456.094 291.107C455.594 291.107 455.146 291.024 454.75 290.857C454.353 290.683 454.04 290.445 453.81 290.144C453.58 289.834 453.453 289.481 453.43 289.085H454.548C454.579 289.41 454.73 289.676 455 289.882C455.277 290.088 455.638 290.191 456.082 290.191C456.495 290.191 456.82 290.1 457.058 289.918C457.295 289.735 457.414 289.505 457.414 289.228C457.414 288.942 457.288 288.732 457.034 288.597C456.78 288.454 456.387 288.316 455.856 288.181C455.372 288.054 454.976 287.927 454.667 287.8C454.365 287.665 454.104 287.471 453.882 287.217C453.667 286.956 453.56 286.615 453.56 286.194C453.56 285.861 453.66 285.556 453.858 285.278C454.056 285.001 454.338 284.783 454.702 284.624C455.067 284.458 455.483 284.374 455.951 284.374C456.673 284.374 457.256 284.557 457.7 284.922C458.144 285.286 458.382 285.786 458.414 286.42H457.331C457.307 286.079 457.169 285.806 456.915 285.6C456.669 285.393 456.336 285.29 455.916 285.29C455.527 285.29 455.218 285.374 454.988 285.54C454.758 285.707 454.643 285.925 454.643 286.194C454.643 286.408 454.71 286.587 454.845 286.73C454.988 286.864 455.162 286.975 455.368 287.063C455.583 287.142 455.876 287.233 456.249 287.336C456.717 287.463 457.097 287.59 457.391 287.717C457.684 287.836 457.934 288.018 458.14 288.264C458.354 288.51 458.465 288.831 458.473 289.228C458.473 289.584 458.374 289.906 458.176 290.191C457.977 290.477 457.696 290.703 457.331 290.869C456.974 291.028 456.562 291.107 456.094 291.107Z" fill="black"/>
<rect x="344.75" y="64.25" width="142.5" height="64.5" rx="7.75" fill="#F4FBFF" stroke="#E2E2E2" stroke-width="0.5"/>
<path d="M400.754 100.12H403.656V101H399.671V92.709H400.754V100.12ZM407.649 101.107C407.038 101.107 406.483 100.968 405.983 100.691C405.492 100.413 405.103 100.021 404.818 99.5131C404.54 98.9976 404.401 98.4029 404.401 97.7288C404.401 97.0627 404.544 96.4759 404.83 95.9683C405.123 95.4529 405.52 95.0603 406.019 94.7907C406.519 94.5132 407.078 94.3744 407.696 94.3744C408.315 94.3744 408.874 94.5132 409.374 94.7907C409.873 95.0603 410.266 95.4489 410.551 95.9564C410.845 96.464 410.991 97.0548 410.991 97.7288C410.991 98.4029 410.841 98.9976 410.539 99.5131C410.246 100.021 409.845 100.413 409.338 100.691C408.83 100.968 408.267 101.107 407.649 101.107ZM407.649 100.155C408.037 100.155 408.402 100.064 408.743 99.8819C409.084 99.6995 409.358 99.4259 409.564 99.0611C409.778 98.6963 409.885 98.2522 409.885 97.7288C409.885 97.2054 409.782 96.7613 409.576 96.3966C409.37 96.0318 409.1 95.7621 408.767 95.5877C408.434 95.4053 408.073 95.3141 407.684 95.3141C407.288 95.3141 406.923 95.4053 406.59 95.5877C406.265 95.7621 406.003 96.0318 405.805 96.3966C405.607 96.7613 405.508 97.2054 405.508 97.7288C405.508 98.2601 405.603 98.7082 405.793 99.073C405.991 99.4378 406.253 99.7114 406.578 99.8937C406.903 100.068 407.26 100.155 407.649 100.155ZM415.103 94.3744C415.666 94.3744 416.158 94.4973 416.578 94.7431C417.006 94.989 417.323 95.2982 417.53 95.671V94.4814H418.624V101.143C418.624 101.738 418.497 102.265 418.243 102.725C417.989 103.193 417.625 103.557 417.149 103.819C416.681 104.081 416.134 104.212 415.507 104.212C414.651 104.212 413.937 104.009 413.366 103.605C412.795 103.201 412.458 102.649 412.355 101.952H413.426C413.545 102.348 413.79 102.665 414.163 102.903C414.536 103.149 414.984 103.272 415.507 103.272C416.102 103.272 416.586 103.086 416.959 102.713C417.339 102.34 417.53 101.817 417.53 101.143V99.7748C417.315 100.155 416.998 100.473 416.578 100.726C416.158 100.98 415.666 101.107 415.103 101.107C414.524 101.107 413.997 100.964 413.521 100.679C413.053 100.393 412.684 99.9929 412.415 99.4774C412.145 98.962 412.01 98.3751 412.01 97.7169C412.01 97.0508 412.145 96.4679 412.415 95.9683C412.684 95.4608 413.053 95.0683 413.521 94.7907C413.997 94.5132 414.524 94.3744 415.103 94.3744ZM417.53 97.7288C417.53 97.2372 417.43 96.8089 417.232 96.4441C417.034 96.0794 416.764 95.8018 416.423 95.6115C416.09 95.4132 415.721 95.3141 415.317 95.3141C414.913 95.3141 414.544 95.4093 414.211 95.5996C413.878 95.7899 413.612 96.0675 413.414 96.4322C413.216 96.797 413.116 97.2253 413.116 97.7169C413.116 98.2165 413.216 98.6527 413.414 99.0254C413.612 99.3902 413.878 99.6717 414.211 99.87C414.544 100.06 414.913 100.155 415.317 100.155C415.721 100.155 416.09 100.06 416.423 99.87C416.764 99.6717 417.034 99.3902 417.232 99.0254C417.43 98.6527 417.53 98.2205 417.53 97.7288ZM424.183 93.4228C423.977 93.4228 423.803 93.3514 423.66 93.2086C423.517 93.0659 423.446 92.8914 423.446 92.6853C423.446 92.4791 423.517 92.3046 423.66 92.1619C423.803 92.0191 423.977 91.9478 424.183 91.9478C424.382 91.9478 424.548 92.0191 424.683 92.1619C424.826 92.3046 424.897 92.4791 424.897 92.6853C424.897 92.8914 424.826 93.0659 424.683 93.2086C424.548 93.3514 424.382 93.4228 424.183 93.4228ZM424.707 94.4814V101H423.624V94.4814H424.707ZM429.728 94.3625C430.521 94.3625 431.163 94.6043 431.655 95.0881C432.146 95.5639 432.392 96.2538 432.392 97.1579V101H431.322V97.3125C431.322 96.6622 431.159 96.1666 430.834 95.8256C430.509 95.4767 430.065 95.3022 429.502 95.3022C428.931 95.3022 428.475 95.4806 428.134 95.8375C427.801 96.1943 427.634 96.7138 427.634 97.3958V101H426.552V94.4814H427.634V95.4093C427.848 95.0762 428.138 94.8185 428.503 94.6361C428.875 94.4537 429.284 94.3625 429.728 94.3625Z" fill="black"/>
<path d="M256.369 247H237.631V206.894H234.335C230.565 206.894 227.5 203.845 227.5 200.106V174.985C227.5 168.466 232.838 163.162 239.4 163.162H254.601C261.161 163.162 266.5 168.466 266.5 174.985V200.106C266.5 203.845 263.436 206.894 259.661 206.894H256.369V247ZM241.171 243.485H252.831V203.422L254.601 203.376H259.661C261.482 203.376 262.962 201.91 262.962 200.106V174.985C262.962 170.405 259.207 166.679 254.601 166.679H239.4C234.79 166.679 231.038 170.405 231.038 174.985V200.106C231.038 201.91 232.519 203.376 234.335 203.376H241.171V243.485ZM247 161.647C240.438 161.647 235.098 156.342 235.098 149.823C235.098 143.305 240.438 138 247 138C253.561 138 258.905 143.305 258.905 149.823C258.904 156.342 253.56 161.647 247 161.647ZM247 141.517C242.389 141.517 238.639 145.242 238.639 149.823C238.639 154.404 242.389 158.13 247 158.13C251.611 158.13 255.361 154.404 255.361 149.823C255.361 145.242 251.611 141.517 247 141.517Z" fill="#CACACA"/>
<path d="M233.553 262.27V268.472C233.553 269.209 233.744 269.765 234.127 270.138C234.519 270.511 235.06 270.698 235.751 270.698C236.451 270.698 236.992 270.511 237.375 270.138C237.767 269.765 237.963 269.209 237.963 268.472V262.27H239.559V268.444C239.559 269.237 239.386 269.909 239.041 270.46C238.696 271.011 238.234 271.421 237.655 271.692C237.076 271.963 236.437 272.098 235.737 272.098C235.037 272.098 234.398 271.963 233.819 271.692C233.25 271.421 232.797 271.011 232.461 270.46C232.125 269.909 231.957 269.237 231.957 268.444V262.27H233.553ZM244.437 272.126C243.83 272.126 243.284 272.019 242.799 271.804C242.323 271.58 241.945 271.281 241.665 270.908C241.385 270.525 241.236 270.101 241.217 269.634H242.869C242.897 269.961 243.051 270.236 243.331 270.46C243.62 270.675 243.98 270.782 244.409 270.782C244.857 270.782 245.202 270.698 245.445 270.53C245.697 270.353 245.823 270.129 245.823 269.858C245.823 269.569 245.683 269.354 245.403 269.214C245.132 269.074 244.698 268.92 244.101 268.752C243.522 268.593 243.051 268.439 242.687 268.29C242.323 268.141 242.006 267.912 241.735 267.604C241.474 267.296 241.343 266.89 241.343 266.386C241.343 265.975 241.464 265.602 241.707 265.266C241.95 264.921 242.295 264.65 242.743 264.454C243.2 264.258 243.723 264.16 244.311 264.16C245.188 264.16 245.893 264.384 246.425 264.832C246.966 265.271 247.256 265.873 247.293 266.638H245.697C245.669 266.293 245.529 266.017 245.277 265.812C245.025 265.607 244.684 265.504 244.255 265.504C243.835 265.504 243.513 265.583 243.289 265.742C243.065 265.901 242.953 266.111 242.953 266.372C242.953 266.577 243.028 266.75 243.177 266.89C243.326 267.03 243.508 267.142 243.723 267.226C243.938 267.301 244.255 267.399 244.675 267.52C245.235 267.669 245.692 267.823 246.047 267.982C246.411 268.131 246.724 268.355 246.985 268.654C247.246 268.953 247.382 269.349 247.391 269.844C247.391 270.283 247.27 270.675 247.027 271.02C246.784 271.365 246.439 271.636 245.991 271.832C245.552 272.028 245.034 272.126 244.437 272.126ZM256.185 267.954C256.185 268.243 256.167 268.505 256.129 268.738H250.235C250.282 269.354 250.511 269.849 250.921 270.222C251.332 270.595 251.836 270.782 252.433 270.782C253.292 270.782 253.899 270.423 254.253 269.704H255.975C255.742 270.413 255.317 270.997 254.701 271.454C254.095 271.902 253.339 272.126 252.433 272.126C251.696 272.126 251.033 271.963 250.445 271.636C249.867 271.3 249.409 270.833 249.073 270.236C248.747 269.629 248.583 268.929 248.583 268.136C248.583 267.343 248.742 266.647 249.059 266.05C249.386 265.443 249.839 264.977 250.417 264.65C251.005 264.323 251.677 264.16 252.433 264.16C253.161 264.16 253.81 264.319 254.379 264.636C254.949 264.953 255.392 265.401 255.709 265.98C256.027 266.549 256.185 267.207 256.185 267.954ZM254.519 267.45C254.51 266.862 254.3 266.391 253.889 266.036C253.479 265.681 252.97 265.504 252.363 265.504C251.813 265.504 251.341 265.681 250.949 266.036C250.557 266.381 250.324 266.853 250.249 267.45H254.519ZM259.352 265.406C259.585 265.014 259.893 264.711 260.276 264.496C260.668 264.272 261.13 264.16 261.662 264.16V265.812H261.256C260.631 265.812 260.155 265.971 259.828 266.288C259.511 266.605 259.352 267.156 259.352 267.94V272H257.756V264.286H259.352V265.406Z" fill="black"/>
<line x1="275.095" y1="191.706" x2="344.095" y2="96.7062" stroke="#DFDFDF"/>
<line x1="275.5" y1="191.5" x2="344.5" y2="191.5" stroke="#DFDFDF"/>
<line x1="275.905" y1="191.706" x2="344.905" y2="286.706" stroke="#DFDFDF"/>
</svg>
