<svg width="714" height="214" viewBox="0 0 714 214" fill="none" xmlns="http://www.w3.org/2000/svg">
<rect x="0.5" width="713" height="214" fill="white"/>
<path d="M430.016 161.084C430.016 161.78 429.776 162.36 429.296 162.824C428.824 163.28 428.1 163.508 427.124 163.508H425.516V167H424.424V158.636H427.124C428.068 158.636 428.784 158.864 429.272 159.32C429.768 159.776 430.016 160.364 430.016 161.084ZM427.124 162.608C427.732 162.608 428.18 162.476 428.468 162.212C428.756 161.948 428.9 161.572 428.9 161.084C428.9 160.052 428.308 159.536 427.124 159.536H425.516V162.608H427.124ZM432.465 161.492C432.657 161.116 432.929 160.824 433.281 160.616C433.641 160.408 434.077 160.304 434.589 160.304V161.432H434.301C433.077 161.432 432.465 162.096 432.465 163.424V167H431.373V160.424H432.465V161.492ZM438.718 167.108C438.102 167.108 437.542 166.968 437.038 166.688C436.542 166.408 436.15 166.012 435.862 165.5C435.582 164.98 435.442 164.38 435.442 163.7C435.442 163.028 435.586 162.436 435.874 161.924C436.17 161.404 436.57 161.008 437.074 160.736C437.578 160.456 438.142 160.316 438.766 160.316C439.39 160.316 439.954 160.456 440.458 160.736C440.962 161.008 441.358 161.4 441.646 161.912C441.942 162.424 442.09 163.02 442.09 163.7C442.09 164.38 441.938 164.98 441.634 165.5C441.338 166.012 440.934 166.408 440.422 166.688C439.91 166.968 439.342 167.108 438.718 167.108ZM438.718 166.148C439.11 166.148 439.478 166.056 439.822 165.872C440.166 165.688 440.442 165.412 440.65 165.044C440.866 164.676 440.974 164.228 440.974 163.7C440.974 163.172 440.87 162.724 440.662 162.356C440.454 161.988 440.182 161.716 439.846 161.54C439.51 161.356 439.146 161.264 438.754 161.264C438.354 161.264 437.986 161.356 437.65 161.54C437.322 161.716 437.058 161.988 436.858 162.356C436.658 162.724 436.558 163.172 436.558 163.7C436.558 164.236 436.654 164.688 436.846 165.056C437.046 165.424 437.31 165.7 437.638 165.884C437.966 166.06 438.326 166.148 438.718 166.148ZM443.118 163.688C443.118 163.016 443.254 162.428 443.526 161.924C443.798 161.412 444.17 161.016 444.642 160.736C445.122 160.456 445.658 160.316 446.25 160.316C446.762 160.316 447.238 160.436 447.678 160.676C448.118 160.908 448.454 161.216 448.686 161.6V158.12H449.79V167H448.686V165.764C448.47 166.156 448.15 166.48 447.726 166.736C447.302 166.984 446.806 167.108 446.238 167.108C445.654 167.108 445.122 166.964 444.642 166.676C444.17 166.388 443.798 165.984 443.526 165.464C443.254 164.944 443.118 164.352 443.118 163.688ZM448.686 163.7C448.686 163.204 448.586 162.772 448.386 162.404C448.186 162.036 447.914 161.756 447.57 161.564C447.234 161.364 446.862 161.264 446.454 161.264C446.046 161.264 445.674 161.36 445.338 161.552C445.002 161.744 444.734 162.024 444.534 162.392C444.334 162.76 444.234 163.192 444.234 163.688C444.234 164.192 444.334 164.632 444.534 165.008C444.734 165.376 445.002 165.66 445.338 165.86C445.674 166.052 446.046 166.148 446.454 166.148C446.862 166.148 447.234 166.052 447.57 165.86C447.914 165.66 448.186 165.376 448.386 165.008C448.586 164.632 448.686 164.196 448.686 163.7ZM457.467 160.424V167H456.375V166.028C456.167 166.364 455.875 166.628 455.499 166.82C455.131 167.004 454.723 167.096 454.275 167.096C453.763 167.096 453.303 166.992 452.895 166.784C452.487 166.568 452.163 166.248 451.923 165.824C451.691 165.4 451.575 164.884 451.575 164.276V160.424H452.655V164.132C452.655 164.78 452.819 165.28 453.147 165.632C453.475 165.976 453.923 166.148 454.491 166.148C455.075 166.148 455.535 165.968 455.871 165.608C456.207 165.248 456.375 164.724 456.375 164.036V160.424H457.467ZM458.903 163.7C458.903 163.02 459.039 162.428 459.311 161.924C459.583 161.412 459.959 161.016 460.439 160.736C460.927 160.456 461.483 160.316 462.107 160.316C462.915 160.316 463.579 160.512 464.099 160.904C464.627 161.296 464.975 161.84 465.143 162.536H463.967C463.855 162.136 463.635 161.82 463.307 161.588C462.987 161.356 462.587 161.24 462.107 161.24C461.483 161.24 460.979 161.456 460.595 161.888C460.211 162.312 460.019 162.916 460.019 163.7C460.019 164.492 460.211 165.104 460.595 165.536C460.979 165.968 461.483 166.184 462.107 166.184C462.587 166.184 462.987 166.072 463.307 165.848C463.627 165.624 463.847 165.304 463.967 164.888H465.143C464.967 165.56 464.615 166.1 464.087 166.508C463.559 166.908 462.899 167.108 462.107 167.108C461.483 167.108 460.927 166.968 460.439 166.688C459.959 166.408 459.583 166.012 459.311 165.5C459.039 164.988 458.903 164.388 458.903 163.7ZM467.932 161.324V165.2C467.932 165.52 468 165.748 468.136 165.884C468.272 166.012 468.508 166.076 468.844 166.076H469.648V167H468.664C468.056 167 467.6 166.86 467.296 166.58C466.992 166.3 466.84 165.84 466.84 165.2V161.324H465.988V160.424H466.84V158.768H467.932V160.424H469.648V161.324H467.932ZM476.618 165.992L478.658 160.424H479.822L477.242 167H475.97L473.39 160.424H474.566L476.618 165.992ZM481.461 159.356C481.253 159.356 481.077 159.284 480.933 159.14C480.789 158.996 480.717 158.82 480.717 158.612C480.717 158.404 480.789 158.228 480.933 158.084C481.077 157.94 481.253 157.868 481.461 157.868C481.661 157.868 481.829 157.94 481.965 158.084C482.109 158.228 482.181 158.404 482.181 158.612C482.181 158.82 482.109 158.996 481.965 159.14C481.829 159.284 481.661 159.356 481.461 159.356ZM481.989 160.424V167H480.897V160.424H481.989ZM486.178 167.108C485.674 167.108 485.222 167.024 484.822 166.856C484.422 166.68 484.106 166.44 483.874 166.136C483.642 165.824 483.514 165.468 483.49 165.068H484.618C484.65 165.396 484.802 165.664 485.074 165.872C485.354 166.08 485.718 166.184 486.166 166.184C486.582 166.184 486.91 166.092 487.15 165.908C487.39 165.724 487.51 165.492 487.51 165.212C487.51 164.924 487.382 164.712 487.126 164.576C486.87 164.432 486.474 164.292 485.938 164.156C485.45 164.028 485.05 163.9 484.738 163.772C484.434 163.636 484.17 163.44 483.946 163.184C483.73 162.92 483.622 162.576 483.622 162.152C483.622 161.816 483.722 161.508 483.922 161.228C484.122 160.948 484.406 160.728 484.774 160.568C485.142 160.4 485.562 160.316 486.034 160.316C486.762 160.316 487.35 160.5 487.798 160.868C488.246 161.236 488.486 161.74 488.518 162.38H487.426C487.402 162.036 487.262 161.76 487.006 161.552C486.758 161.344 486.422 161.24 485.998 161.24C485.606 161.24 485.294 161.324 485.062 161.492C484.83 161.66 484.714 161.88 484.714 162.152C484.714 162.368 484.782 162.548 484.918 162.692C485.062 162.828 485.238 162.94 485.446 163.028C485.662 163.108 485.958 163.2 486.334 163.304C486.806 163.432 487.19 163.56 487.486 163.688C487.782 163.808 488.034 163.992 488.242 164.24C488.458 164.488 488.57 164.812 488.578 165.212C488.578 165.572 488.478 165.896 488.278 166.184C488.078 166.472 487.794 166.7 487.426 166.868C487.066 167.028 486.65 167.108 486.178 167.108ZM490.683 159.356C490.475 159.356 490.299 159.284 490.155 159.14C490.011 158.996 489.939 158.82 489.939 158.612C489.939 158.404 490.011 158.228 490.155 158.084C490.299 157.94 490.475 157.868 490.683 157.868C490.883 157.868 491.051 157.94 491.187 158.084C491.331 158.228 491.403 158.404 491.403 158.612C491.403 158.82 491.331 158.996 491.187 159.14C491.051 159.284 490.883 159.356 490.683 159.356ZM491.211 160.424V167H490.119V160.424H491.211ZM495.94 167.108C495.324 167.108 494.764 166.968 494.26 166.688C493.764 166.408 493.372 166.012 493.084 165.5C492.804 164.98 492.664 164.38 492.664 163.7C492.664 163.028 492.808 162.436 493.096 161.924C493.392 161.404 493.792 161.008 494.296 160.736C494.8 160.456 495.364 160.316 495.988 160.316C496.612 160.316 497.176 160.456 497.68 160.736C498.184 161.008 498.58 161.4 498.868 161.912C499.164 162.424 499.312 163.02 499.312 163.7C499.312 164.38 499.16 164.98 498.856 165.5C498.56 166.012 498.156 166.408 497.644 166.688C497.132 166.968 496.564 167.108 495.94 167.108ZM495.94 166.148C496.332 166.148 496.7 166.056 497.044 165.872C497.388 165.688 497.664 165.412 497.872 165.044C498.088 164.676 498.196 164.228 498.196 163.7C498.196 163.172 498.092 162.724 497.884 162.356C497.676 161.988 497.404 161.716 497.068 161.54C496.732 161.356 496.368 161.264 495.976 161.264C495.576 161.264 495.208 161.356 494.872 161.54C494.544 161.716 494.28 161.988 494.08 162.356C493.88 162.724 493.78 163.172 493.78 163.7C493.78 164.236 493.876 164.688 494.068 165.056C494.268 165.424 494.532 165.7 494.86 165.884C495.188 166.06 495.548 166.148 495.94 166.148ZM503.952 160.304C504.752 160.304 505.4 160.548 505.896 161.036C506.392 161.516 506.64 162.212 506.64 163.124V167H505.56V163.28C505.56 162.624 505.396 162.124 505.068 161.78C504.74 161.428 504.292 161.252 503.724 161.252C503.148 161.252 502.688 161.432 502.344 161.792C502.008 162.152 501.84 162.676 501.84 163.364V167H500.748V160.424H501.84V161.36C502.056 161.024 502.348 160.764 502.716 160.58C503.092 160.396 503.504 160.304 503.952 160.304Z" fill="black"/>
<path fill-rule="evenodd" clip-rule="evenodd" d="M499.422 95.4061C495.709 94.3341 491.768 94.3341 488.055 95.4061C491.769 96.4771 495.709 96.4771 499.422 95.4061ZM487.732 92.1921C486.254 92.7461 485.063 93.5031 486.054 94.3921C489.872 92.3811 497.605 92.3811 501.424 94.3921C502.414 93.5021 501.227 92.7451 499.745 92.1921C495.834 90.9691 491.643 90.9691 487.732 92.1921ZM485.453 96.0551C485.512 96.1053 485.577 96.1476 485.647 96.1811V96.1851C486.118 96.4728 486.617 96.7127 487.135 96.9011C491.431 98.2761 496.048 98.2761 500.343 96.9011C504.557 95.3291 504.615 92.1851 500.343 90.5921C496.048 89.2171 491.431 89.2171 487.135 90.5921C485.174 91.3231 483.962 92.4321 483.962 93.7471C483.999 94.2254 484.155 94.6868 484.416 95.0898C484.676 95.4928 485.033 95.8245 485.453 96.0551ZM513.321 84.6731C507.427 80.6853 500.446 78.6118 493.33 78.7351C486.215 78.612 479.234 80.6855 473.34 84.6731C462.087 92.7221 462.087 105.91 473.34 113.96C484.405 121.875 502.255 121.875 513.321 113.96C524.573 105.91 524.573 92.7221 513.321 84.6731ZM516.717 102.347C517.831 102.285 518.914 101.959 519.877 101.396H519.888C519.212 105.723 516.453 109.619 512.338 112.563C501.871 120.05 484.812 120.05 474.345 112.563C472.26 111.107 470.465 109.274 469.053 107.158C469.595 107.162 470.132 107.06 470.634 106.856C471.136 106.652 471.592 106.351 471.978 105.97C472.363 105.589 472.669 105.135 472.878 104.636C473.087 104.136 473.196 103.6 473.197 103.058V99.2171C473.282 98.8781 473.741 98.5941 474.341 98.4041C475.275 98.1091 476.277 98.1091 477.21 98.4041C477.405 98.4512 477.584 98.5487 477.73 98.6868C477.875 98.8249 477.982 98.9988 478.039 99.1911V108.247C478.039 109.335 478.471 110.377 479.24 111.146C480.009 111.915 481.052 112.347 482.139 112.347C483.227 112.347 484.269 111.915 485.038 111.146C485.807 110.377 486.239 109.335 486.239 108.247V103.058C486.717 103.608 487.335 104.019 488.026 104.247C488.718 104.476 489.459 104.514 490.17 104.358V112.312C490.17 113.4 490.602 114.442 491.371 115.211C492.14 115.98 493.183 116.412 494.27 116.412C495.358 116.412 496.4 115.98 497.169 115.211C497.938 114.442 498.37 113.4 498.37 112.312V104.612C498.372 104.583 498.372 104.553 498.37 104.524C498.354 103.654 500.156 102.374 501.994 101.61C502.591 101.364 505.209 100.438 505.271 101.61V106.452C505.271 107.54 505.703 108.582 506.472 109.351C507.241 110.12 508.284 110.552 509.371 110.552C510.459 110.552 511.501 110.12 512.27 109.351C513.039 108.582 513.471 107.54 513.471 106.452V101.752C514.491 102.205 515.603 102.408 516.717 102.347ZM474.334 86.0701C468.828 90.0081 465.678 95.7401 466.869 101.885C467.072 102.854 467.825 105.439 469.085 105.439C469.718 105.438 470.324 105.186 470.772 104.739C471.219 104.292 471.472 103.686 471.473 103.053C471.473 102.949 471.472 102.749 471.471 102.491C471.464 101.376 471.451 99.1781 471.499 98.9531C472.008 96.5341 475.781 96.0451 477.799 96.8001C478.318 96.9351 478.783 97.2263 479.131 97.6344C479.478 98.0424 479.692 98.5475 479.743 99.0811C479.816 100.989 479.792 103.319 479.769 105.468C479.759 106.451 479.749 107.397 479.749 108.247C479.762 108.871 480.019 109.465 480.464 109.901C480.91 110.338 481.509 110.582 482.133 110.582C482.757 110.582 483.355 110.338 483.801 109.901C484.247 109.465 484.503 108.871 484.516 108.247V102.522C484.518 102.199 484.621 101.885 484.812 101.624C485.003 101.364 485.271 101.17 485.579 101.071C485.886 100.972 486.217 100.973 486.524 101.074C486.831 101.174 487.099 101.369 487.288 101.63C487.573 102.074 487.995 102.412 488.49 102.593C488.986 102.774 489.527 102.787 490.03 102.63C490.254 102.582 490.485 102.585 490.708 102.638C490.93 102.691 491.138 102.794 491.316 102.937C491.494 103.081 491.637 103.263 491.736 103.469C491.834 103.676 491.885 103.901 491.885 104.13V112.32C491.898 112.944 492.155 113.538 492.6 113.974C493.046 114.411 493.645 114.655 494.269 114.655C494.893 114.655 495.491 114.411 495.937 113.974C496.383 113.538 496.639 112.944 496.652 112.32V104.6C496.621 102.032 502.257 98.7671 505.152 99.4091C505.672 99.4877 506.146 99.7539 506.484 100.157C506.821 100.561 507 101.074 506.985 101.6V106.456C506.998 107.08 507.255 107.674 507.7 108.11C508.146 108.547 508.745 108.791 509.369 108.791C509.993 108.791 510.591 108.547 511.037 108.11C511.483 107.674 511.739 107.08 511.752 106.456V101.456C511.753 101.196 511.82 100.94 511.947 100.713C512.075 100.486 512.257 100.294 512.479 100.157C512.7 100.02 512.953 99.9419 513.213 99.9294C513.473 99.917 513.732 99.9709 513.965 100.086C516.059 101.128 518.087 100.629 520.039 99.2951C520.027 94.1501 517.085 89.4701 512.327 86.0701C501.86 78.5821 484.801 78.5821 474.334 86.0701ZM468.194 52.7141C465.531 50.872 462.357 49.9093 459.119 49.9611C455.881 49.9093 452.708 50.872 450.044 52.7141C444.834 56.5081 444.834 62.7861 450.044 66.5801C452.73 68.3748 455.889 69.3327 459.119 69.3327C462.35 69.3327 465.508 68.3748 468.194 66.5801C473.404 62.7861 473.404 56.5081 468.194 52.7141ZM440.027 77.7541C438.125 76.2864 436.473 74.5205 435.135 72.5251C433.117 69.5661 432.029 66.0717 432.01 62.4901C432.01 56.5151 435.074 51.1191 440.027 47.2251C450.591 38.9251 467.646 38.9251 478.211 47.2251C488.903 55.6291 488.903 69.3541 478.211 77.7541C467.646 86.0541 450.591 86.0541 440.027 77.7541ZM482.233 70.675C482.234 70.6747 482.234 70.6744 482.235 70.6741L482.234 70.6731C482.234 70.6737 482.233 70.6743 482.233 70.675ZM482.233 70.675C480.391 71.4104 478.382 71.6226 476.427 71.2881V73.8561C476.427 76.3811 472.627 77.6401 470.318 75.9721C469.967 75.7397 469.677 75.426 469.473 75.0577C469.269 74.6893 469.156 74.2772 469.145 73.8561C469.145 71.7361 468.562 69.7501 467.155 69.9291C466.742 70.0021 466.356 70.184 466.036 70.4561C464.669 71.5311 463.476 73.9851 463.476 77.4961C463.476 80.0211 459.676 81.2811 457.367 79.6121C457.016 79.3797 456.726 79.066 456.522 78.6977C456.318 78.3293 456.205 77.9172 456.194 77.4961V72.8961C455.095 73.0673 453.972 72.8002 453.068 72.1521V74.9721C453.068 77.4961 449.268 78.7561 446.959 77.0881C446.608 76.8553 446.317 76.5411 446.113 76.1723C445.909 75.8034 445.796 75.3907 445.785 74.9691V69.3881C445.71 69.0952 445.556 68.8284 445.341 68.616C445.125 68.4036 444.856 68.2536 444.562 68.1821C443.484 67.8301 441.862 68.1301 441.878 69.3321V71.7471C441.805 72.4767 441.477 73.1572 440.953 73.6702C440.429 74.1832 439.742 74.496 439.011 74.5541C448.533 84.1641 466.48 84.7911 477.15 76.4031C479.188 74.8289 480.912 72.8858 482.233 70.675ZM436.386 71.2854C436.302 71.1477 436.219 71.0119 436.135 70.8831H436.129C431.46 63.1471 433.831 54.2801 441.086 48.5751C451.025 40.7631 467.209 40.7631 477.147 48.5751C481.694 52.1491 484.507 57.0701 484.507 62.4901C484.505 64.4944 484.12 66.4799 483.374 68.3401C482.188 68.9259 480.929 69.3507 479.63 69.6031C478.661 69.838 477.65 69.8291 476.685 69.5771C476.479 69.4888 476.254 69.4506 476.03 69.4656C475.806 69.4805 475.589 69.5482 475.396 69.6632C475.203 69.7782 475.04 69.9371 474.921 70.127C474.801 70.317 474.728 70.5325 474.707 70.7561V73.8561C474.692 74.0047 474.643 74.1477 474.563 74.2738C474.483 74.3998 474.374 74.5054 474.246 74.5821C472.989 75.4911 470.863 74.8121 470.863 73.8561C470.863 71.1591 470.079 69.4821 468.963 68.7131C468.348 68.3311 467.625 68.1626 466.905 68.2337C466.184 68.3047 465.507 68.6114 464.979 69.1061C463.26 70.4581 461.76 73.4041 461.76 77.4961C461.745 77.6448 461.696 77.7879 461.616 77.9139C461.536 78.04 461.427 78.1456 461.299 78.2221C460.043 79.1321 457.917 78.4521 457.917 77.4961V72.4151C457.904 72.1028 457.781 71.8051 457.569 71.5755C457.357 71.346 457.07 71.1994 456.759 71.1621C456.584 71.1322 456.361 71.152 456.11 71.1745C455.453 71.233 454.598 71.3092 453.864 70.5701C453.671 70.3715 453.425 70.2317 453.156 70.1667C452.887 70.1016 452.604 70.1141 452.342 70.2027C452.079 70.2913 451.847 70.4523 451.672 70.6672C451.497 70.8821 451.387 71.1421 451.353 71.4171V74.9691C451.338 75.1177 451.289 75.2607 451.209 75.3867C451.129 75.5127 451.02 75.6183 450.892 75.6951C449.635 76.6041 447.51 75.9251 447.51 74.9691C447.51 74.5052 447.527 73.9199 447.544 73.2912C447.585 71.8449 447.632 70.169 447.5 69.2141C447.14 66.6491 443.939 65.7311 441.881 66.7041C441.384 66.9168 440.959 67.2679 440.655 67.7155C440.352 68.1632 440.184 68.6886 440.17 69.2291L440.164 71.7481C440.164 72.4541 439.076 72.9011 438.242 72.9011C437.374 72.9011 436.861 72.0621 436.386 71.2854ZM469.04 63.4161C464.767 57.8341 453.483 57.8341 449.21 63.4161C453.474 69.0021 464.776 69.0011 469.04 63.4161ZM469.947 61.8331C464.826 56.0631 453.412 56.0631 448.29 61.8331C447.116 58.9371 448.401 56.0281 451.051 54.0981C453.446 52.5208 456.251 51.6801 459.119 51.6801C461.987 51.6801 464.792 52.5208 467.187 54.0981C469.837 56.0331 471.122 58.9331 469.947 61.8331ZM440.116 58.8312C439.945 58.9811 439.84 59.193 439.825 59.4201V59.4211L439.751 60.5331C439.736 60.7603 439.812 60.9841 439.962 61.1555C440.112 61.3268 440.324 61.4315 440.551 61.4466C440.778 61.4617 441.002 61.386 441.173 61.2361C441.344 61.0861 441.449 60.8743 441.464 60.6471L441.538 59.5341C441.553 59.307 441.478 59.0831 441.328 58.9118C441.178 58.7405 440.966 58.6357 440.739 58.6206C440.512 58.6055 440.288 58.6812 440.116 58.8312ZM436.599 64.5981C436.439 64.753 436.345 64.9642 436.337 65.1871V66.3731C436.345 66.596 436.439 66.8072 436.599 66.9622C436.759 67.1172 436.974 67.2038 437.197 67.2038C437.42 67.2038 437.634 67.1172 437.794 66.9622C437.955 66.8072 438.049 66.596 438.056 66.3731V65.1871C438.049 64.9642 437.955 64.753 437.794 64.5981C437.634 64.4431 437.42 64.3564 437.197 64.3564C436.974 64.3564 436.759 64.4431 436.599 64.5981ZM445.137 66.0721L444.692 65.3301V65.3271C444.634 65.2305 444.596 65.1235 444.58 65.0122C444.563 64.9008 444.569 64.7873 444.596 64.6782C444.624 64.569 444.673 64.4663 444.74 64.376C444.807 64.2856 444.891 64.2094 444.988 64.1516C445.084 64.0938 445.191 64.0556 445.303 64.0392C445.414 64.0228 445.527 64.0285 445.637 64.0559C445.746 64.0834 445.848 64.132 445.939 64.1992C446.029 64.2663 446.105 64.3505 446.163 64.4471L446.608 65.1921C446.725 65.3872 446.759 65.6206 446.704 65.8411C446.648 66.0615 446.508 66.2509 446.313 66.3676C446.118 66.4843 445.884 66.5187 445.664 66.4633C445.443 66.4079 445.254 66.2672 445.137 66.0721ZM473.338 63.6521L474.525 62.6141C474.697 62.4702 474.918 62.3993 475.142 62.4166C475.365 62.434 475.573 62.5382 475.721 62.7069C475.868 62.8757 475.944 63.0955 475.931 63.3193C475.919 63.5431 475.819 63.753 475.653 63.9041L474.467 64.9421C474.296 65.0918 474.073 65.1675 473.846 65.1524C473.619 65.1373 473.407 65.0327 473.258 64.8616C473.108 64.6906 473.032 64.467 473.047 64.2402C473.063 64.0134 473.167 63.8018 473.338 63.6521ZM477.521 62.8227C477.493 62.9319 477.486 63.0455 477.502 63.1571L477.576 63.6761C477.608 63.9016 477.728 64.1051 477.91 64.2419C478.092 64.3787 478.321 64.4376 478.547 64.4056C478.772 64.3737 478.976 64.2535 479.112 64.0715C479.249 63.8895 479.308 63.6606 479.276 63.4351L479.202 62.9161C479.186 62.8045 479.149 62.6971 479.091 62.6C479.034 62.5029 478.958 62.4181 478.868 62.3504C478.778 62.2826 478.675 62.2333 478.566 62.2052C478.457 62.1771 478.343 62.1708 478.232 62.1866C478.12 62.2024 478.013 62.2401 477.916 62.2974C477.819 62.3548 477.734 62.4307 477.666 62.5208C477.598 62.6109 477.549 62.7135 477.521 62.8227ZM474.681 56.145C474.484 56.2496 474.335 56.4273 474.266 56.6401L473.895 57.9001C473.836 58.1169 473.864 58.3482 473.974 58.5444C474.083 58.7407 474.265 58.8861 474.481 58.9495C474.696 59.0129 474.928 58.9892 475.126 58.8834C475.325 58.7777 475.474 58.5984 475.541 58.3841L475.912 57.1231C475.969 56.9069 475.94 56.677 475.83 56.4821C475.721 56.2873 475.539 56.143 475.324 56.0801C475.11 56.0171 474.879 56.0404 474.681 56.145ZM455.628 45.0277C455.653 45.14 455.7 45.2463 455.766 45.3401L456.067 45.7851C456.194 45.9748 456.39 46.1064 456.614 46.1511C456.837 46.1959 457.069 46.15 457.259 46.0236C457.448 45.8972 457.58 45.7007 457.625 45.4773C457.669 45.2538 457.624 45.0218 457.497 44.8321L457.197 44.3871C457.136 44.2896 457.056 44.2053 456.962 44.1392C456.868 44.0732 456.762 44.0266 456.649 44.0024C456.537 43.9782 456.421 43.9767 456.308 43.9982C456.195 44.0197 456.087 44.0636 455.991 44.1273C455.896 44.1911 455.814 44.2734 455.75 44.3694C455.687 44.4653 455.643 44.5731 455.622 44.6861C455.601 44.7992 455.603 44.9154 455.628 45.0277ZM464.225 45.6973C464.14 45.7719 464.071 45.8626 464.021 45.9641H464.02L463.72 46.5571C463.619 46.7603 463.602 46.9955 463.674 47.2109C463.746 47.4264 463.9 47.6045 464.103 47.7061C464.306 47.8077 464.542 47.8244 464.757 47.7526C464.972 47.6808 465.151 47.5263 465.252 47.3231L465.552 46.7301C465.604 46.6295 465.635 46.5196 465.643 46.4069C465.652 46.2942 465.639 46.1809 465.603 46.0735C465.568 45.9661 465.512 45.8667 465.438 45.7811C465.364 45.6955 465.274 45.6254 465.173 45.5749C465.072 45.5243 464.962 45.4942 464.849 45.4864C464.736 45.4786 464.623 45.4932 464.516 45.5294C464.409 45.5656 464.31 45.6227 464.225 45.6973ZM471.836 49.6661L472.43 49.2211C472.52 49.1537 472.623 49.1046 472.731 49.0768C472.84 49.0489 472.954 49.0427 473.065 49.0587C473.176 49.0746 473.283 49.1123 473.38 49.1696C473.477 49.2269 473.561 49.3027 473.629 49.3926C473.696 49.4826 473.745 49.5849 473.773 49.6938C473.801 49.8028 473.807 49.9161 473.791 50.0274C473.775 50.1387 473.738 50.2457 473.68 50.3425C473.623 50.4392 473.547 50.5237 473.457 50.5911L472.864 51.0361C472.774 51.1036 472.672 51.1527 472.563 51.1807C472.454 51.2086 472.341 51.2148 472.229 51.1989C472.118 51.1831 472.011 51.1454 471.914 51.0881C471.817 51.0309 471.733 50.9551 471.665 50.8651C471.598 50.7752 471.549 50.6728 471.521 50.5639C471.493 50.4549 471.486 50.3415 471.502 50.2302C471.518 50.1189 471.556 50.0118 471.613 49.915C471.67 49.8182 471.746 49.7336 471.836 49.6661ZM445.52 49.8341L445.297 49.2411V49.2401C445.258 49.1347 445.24 49.0226 445.243 48.9102C445.247 48.7977 445.273 48.6872 445.32 48.5848C445.367 48.4824 445.433 48.3902 445.515 48.3135C445.598 48.2368 445.694 48.177 445.8 48.1376C445.905 48.0982 446.017 48.08 446.13 48.0839C446.242 48.0878 446.353 48.1139 446.455 48.1605C446.557 48.2072 446.65 48.2736 446.726 48.3559C446.803 48.4381 446.863 48.5347 446.902 48.6401L447.125 49.2341C447.205 49.447 447.197 49.6827 447.102 49.8894C447.008 50.0962 446.836 50.2571 446.623 50.3366C446.41 50.4162 446.174 50.4079 445.967 50.3137C445.761 50.2195 445.6 50.047 445.52 49.8341ZM441.479 52.5836C441.513 52.6938 441.569 52.796 441.643 52.8841L442.459 53.9221C442.6 54.101 442.806 54.2167 443.032 54.2437C443.258 54.2707 443.485 54.2068 443.664 54.0661C443.843 53.9254 443.959 53.7194 443.986 53.4934C444.013 53.2675 443.949 53.04 443.808 52.8611L442.993 51.8231C442.925 51.7302 442.839 51.6519 442.74 51.593C442.641 51.534 442.531 51.4956 442.417 51.48C442.303 51.4643 442.187 51.4718 442.075 51.502C441.964 51.5322 441.86 51.5845 441.77 51.6557C441.679 51.7269 441.604 51.8155 441.548 51.9165C441.492 52.0174 441.458 52.1285 441.446 52.2431C441.434 52.3577 441.446 52.4735 441.479 52.5836ZM452.095 48.6381L453.133 47.8221L453.124 47.8271C453.304 47.6954 453.528 47.6386 453.749 47.6688C453.969 47.699 454.17 47.8139 454.307 47.9891C454.445 48.1643 454.509 48.3862 454.487 48.6078C454.464 48.8295 454.356 49.0336 454.185 49.1771L453.156 49.9881C453.068 50.0623 452.966 50.118 452.856 50.1519C452.746 50.1858 452.63 50.1972 452.515 50.1854C452.401 50.1736 452.289 50.1388 452.189 50.0832C452.088 50.0276 451.999 49.9523 451.928 49.8617C451.857 49.7711 451.804 49.6671 451.774 49.5559C451.744 49.4447 451.736 49.3286 451.752 49.2144C451.768 49.1002 451.806 48.9904 451.865 48.8914C451.924 48.7924 452.002 48.7063 452.095 48.6381ZM480.506 60.4902C480.399 60.6867 480.373 60.9175 480.433 61.1331L480.733 62.0971C480.803 62.3098 480.954 62.4866 481.153 62.5897C481.352 62.6927 481.583 62.7138 481.797 62.6485C482.011 62.5831 482.191 62.4365 482.299 62.24C482.406 62.0435 482.433 61.8128 482.372 61.5971L482.072 60.6331C482.002 60.4204 481.851 60.2436 481.653 60.1406C481.454 60.0375 481.222 60.0164 481.008 60.0818C480.794 60.1471 480.614 60.2937 480.506 60.4902ZM473.657 91.9141L473.579 91.4471C473.549 91.2258 473.606 91.0013 473.738 90.8213C473.87 90.6413 474.068 90.52 474.288 90.4833C474.508 90.4466 474.734 90.4972 474.918 90.6246C475.102 90.7519 475.228 90.9458 475.271 91.1651L475.349 91.6321C475.38 91.8535 475.323 92.078 475.19 92.258C475.058 92.438 474.861 92.5592 474.64 92.596C474.42 92.6327 474.194 92.582 474.01 92.4547C473.827 92.3273 473.7 92.1334 473.657 91.9141ZM478.411 94.8041L478.099 94.1811C477.998 93.978 477.981 93.7428 478.053 93.5274C478.125 93.3121 478.28 93.1341 478.483 93.0326C478.686 92.9312 478.921 92.9146 479.136 92.9865C479.352 93.0584 479.53 93.213 479.631 93.4161L479.942 94.0391C480.037 94.2413 480.049 94.4727 479.976 94.6837C479.903 94.8947 479.75 95.0687 479.55 95.1686C479.35 95.2684 479.119 95.2862 478.906 95.2181C478.694 95.15 478.516 95.0015 478.411 94.8041ZM507.451 91.1501V90.3711C507.459 90.1482 507.553 89.937 507.713 89.7821C507.873 89.6271 508.088 89.5404 508.311 89.5404C508.534 89.5404 508.748 89.6271 508.908 89.7821C509.069 89.937 509.163 90.1482 509.17 90.3711V91.1501C509.163 91.373 509.069 91.5842 508.908 91.7392C508.748 91.8942 508.534 91.9808 508.311 91.9808C508.088 91.9808 507.873 91.8942 507.713 91.7392C507.553 91.5842 507.459 91.373 507.451 91.1501ZM510.951 94.5001V93.3351C510.959 93.1122 511.053 92.901 511.213 92.7461C511.373 92.5911 511.588 92.5044 511.811 92.5044C512.034 92.5044 512.248 92.5911 512.408 92.7461C512.569 92.901 512.663 93.1122 512.67 93.3351V94.5001C512.663 94.723 512.569 94.9342 512.408 95.0892C512.248 95.2442 512.034 95.3308 511.811 95.3308C511.588 95.3308 511.373 95.2442 511.213 95.0892C511.053 94.9342 510.959 94.723 510.951 94.5001ZM481.107 101.75L480.951 101.516C480.827 101.326 480.783 101.095 480.829 100.873C480.875 100.651 481.007 100.456 481.196 100.331C481.385 100.206 481.616 100.161 481.838 100.205C482.06 100.25 482.256 100.381 482.382 100.569L482.537 100.803C482.604 100.897 482.651 101.003 482.675 101.115C482.7 101.228 482.702 101.344 482.681 101.457C482.659 101.57 482.616 101.677 482.552 101.773C482.489 101.869 482.407 101.951 482.311 102.015C482.215 102.078 482.107 102.122 481.994 102.143C481.881 102.164 481.765 102.162 481.653 102.137C481.541 102.113 481.435 102.066 481.341 101.999C481.247 101.933 481.168 101.848 481.107 101.75ZM487.665 85.9351V84.3771C487.673 84.1542 487.767 83.943 487.927 83.7881C488.087 83.6331 488.302 83.5464 488.525 83.5464C488.748 83.5464 488.962 83.6331 489.122 83.7881C489.283 83.943 489.377 84.1542 489.384 84.3771V85.9351C489.377 86.158 489.283 86.3692 489.122 86.5242C488.962 86.6792 488.748 86.7658 488.525 86.7658C488.302 86.7658 488.087 86.6792 487.927 86.5242C487.767 86.3692 487.673 86.158 487.665 85.9351ZM494.442 101.355L493.585 101.432L493.583 101.425C493.367 101.428 493.158 101.35 492.998 101.206C492.838 101.061 492.738 100.862 492.718 100.647C492.698 100.432 492.761 100.218 492.892 100.047C493.024 99.8759 493.215 99.761 493.428 99.7251L494.285 99.6471C494.512 99.6263 494.737 99.6963 494.912 99.8417C495.087 99.9872 495.197 100.196 495.218 100.423C495.239 100.649 495.169 100.875 495.023 101.049C494.878 101.224 494.669 101.334 494.442 101.355ZM501.874 86.4791L502.185 85.3881C502.251 85.1737 502.399 84.9937 502.596 84.8867C502.794 84.7798 503.025 84.7542 503.241 84.8157C503.457 84.8771 503.64 85.0205 503.752 85.2154C503.863 85.4102 503.894 85.6409 503.837 85.8581L503.526 86.9491C503.46 87.1635 503.312 87.3435 503.115 87.4505C502.918 87.5575 502.686 87.583 502.47 87.5216C502.255 87.4602 502.071 87.3167 501.96 87.1219C501.848 86.927 501.818 86.6963 501.874 86.4791ZM481.598 88.0251L480.975 87.7131C480.874 87.6634 480.783 87.5941 480.708 87.5092C480.634 87.4243 480.577 87.3254 480.541 87.2183C480.504 87.1112 480.49 86.998 480.497 86.8852C480.505 86.7724 480.535 86.6623 480.586 86.5612C480.637 86.4601 480.707 86.3701 480.792 86.2962C480.878 86.2223 480.977 86.1662 481.085 86.1309C481.192 86.0957 481.305 86.0821 481.418 86.0908C481.531 86.0996 481.641 86.1307 481.741 86.1821L482.364 86.4931C482.567 86.5947 482.722 86.7728 482.794 86.9883C482.865 87.2038 482.849 87.439 482.747 87.6421C482.646 87.8453 482.467 87.9998 482.252 88.0716C482.037 88.1434 481.801 88.1267 481.598 88.0251ZM493.514 87.3311L493.592 86.5521C493.621 86.331 493.734 86.1297 493.908 85.9908C494.083 85.8519 494.304 85.7865 494.526 85.8084C494.748 85.8302 494.953 85.9377 495.097 86.1079C495.241 86.2781 495.313 86.4977 495.297 86.7201L495.22 87.4991C495.198 87.7253 495.087 87.9335 494.911 88.0777C494.735 88.2219 494.509 88.2904 494.283 88.2681C494.057 88.2458 493.849 88.1346 493.705 87.9589C493.56 87.7832 493.492 87.5574 493.514 87.3311ZM508.715 100.486L508.404 100.175C508.252 100.012 508.169 99.7965 508.173 99.5736C508.177 99.3507 508.267 99.1379 508.424 98.9802C508.582 98.8225 508.795 98.7322 509.017 98.7282C509.24 98.7243 509.456 98.8071 509.619 98.9591L509.931 99.2711C510.083 99.4342 510.166 99.6499 510.162 99.8728C510.158 100.096 510.068 100.308 509.91 100.466C509.752 100.624 509.54 100.714 509.317 100.718C509.094 100.721 508.878 100.638 508.715 100.486ZM445.726 100.025C443.306 97.8727 440.273 96.5315 437.053 96.1894C433.845 95.7444 430.578 96.3143 427.71 97.819C422.078 100.952 421.315 107.183 426.025 111.582C428.474 113.69 431.492 115.025 434.698 115.417C437.905 115.81 441.156 115.243 444.041 113.788C449.673 110.655 450.436 104.424 445.726 100.025ZM414.725 121.456C413.015 119.768 411.59 117.814 410.504 115.671C408.861 112.489 408.205 108.888 408.622 105.331C409.348 99.4001 413.045 94.4165 418.435 91.1533C429.929 84.1987 446.858 86.2715 456.336 95.794C465.927 105.435 464.259 119.058 452.625 126.097C441.13 133.051 424.201 130.978 414.725 121.456ZM457.478 119.559C457.479 119.559 457.479 119.558 457.48 119.558L457.479 119.557C457.479 119.558 457.478 119.558 457.478 119.559ZM457.478 119.559C455.56 120.065 453.54 120.031 451.641 119.462L451.328 122.011C451.022 124.517 447.097 125.305 445.008 123.369C444.687 123.095 444.437 122.749 444.279 122.358C444.122 121.968 444.06 121.545 444.1 121.126C444.358 119.021 444.021 116.979 442.602 116.986C442.183 117.008 441.778 117.142 441.428 117.373C439.94 118.274 438.458 120.565 438.031 124.05C437.724 126.556 433.799 127.345 431.71 125.408C431.39 125.134 431.14 124.788 430.982 124.397C430.824 124.007 430.763 123.584 430.803 123.165L431.362 118.599C430.25 118.635 429.168 118.234 428.35 117.48L428.007 120.28C427.7 122.785 423.775 123.574 421.686 121.637C421.365 121.364 421.115 121.016 420.957 120.626C420.799 120.235 420.738 119.811 420.778 119.391L421.457 113.852C421.417 113.552 421.297 113.268 421.109 113.031C420.921 112.794 420.672 112.613 420.389 112.506C419.362 112.026 417.716 112.126 417.585 113.321L417.292 115.718C417.13 116.434 416.723 117.069 416.14 117.515C415.558 117.96 414.838 118.187 414.105 118.156C422.388 128.852 440.126 131.656 451.737 124.627C453.951 123.312 455.898 121.593 457.478 119.559ZM411.897 114.593C411.83 114.446 411.764 114.301 411.696 114.163L411.69 114.162C407.996 105.916 411.427 97.403 419.322 92.622C430.137 86.0759 446.201 88.0428 455.116 97.0047C459.195 101.105 461.389 106.331 460.73 111.711C460.484 113.7 459.861 115.624 458.894 117.38C457.646 117.817 456.344 118.086 455.025 118.179C454.034 118.294 453.031 118.162 452.105 117.795C451.91 117.682 451.692 117.617 451.468 117.605C451.244 117.592 451.02 117.633 450.815 117.724C450.609 117.814 450.428 117.952 450.286 118.126C450.144 118.3 450.046 118.505 449.998 118.725L449.621 121.802C449.588 121.947 449.522 122.083 449.427 122.199C449.332 122.314 449.212 122.406 449.075 122.466C447.717 123.216 445.69 122.283 445.806 121.335C446.133 118.658 445.559 116.898 444.545 115.999C443.981 115.545 443.283 115.29 442.56 115.273C441.836 115.256 441.127 115.478 440.543 115.905C438.672 117.038 436.825 119.78 436.328 123.841C436.295 123.987 436.229 124.123 436.134 124.238C436.039 124.354 435.919 124.445 435.782 124.506C434.425 125.256 432.397 124.323 432.513 123.374L433.131 118.331C433.156 118.019 433.07 117.709 432.887 117.455C432.704 117.201 432.437 117.021 432.134 116.946C431.963 116.895 431.74 116.888 431.487 116.88C430.829 116.858 429.971 116.83 429.332 116.007C429.164 115.786 428.938 115.618 428.678 115.52C428.419 115.423 428.137 115.401 427.866 115.457C427.594 115.513 427.344 115.645 427.145 115.837C426.945 116.029 426.803 116.274 426.737 116.542L426.305 120.068C426.272 120.214 426.206 120.35 426.111 120.465C426.016 120.58 425.896 120.672 425.759 120.733C424.401 121.482 422.374 120.55 422.491 119.601C422.547 119.141 422.634 118.562 422.728 117.94C422.944 116.509 423.195 114.851 423.18 113.888C423.134 111.298 420.069 109.998 417.908 110.713C417.388 110.864 416.923 111.161 416.568 111.568C416.212 111.976 415.981 112.477 415.903 113.012L415.59 115.511C415.505 116.212 414.37 116.523 413.543 116.422C412.681 116.317 412.274 115.421 411.897 114.593ZM445.265 110.75C441.702 104.69 430.502 103.319 425.582 108.34C429.136 114.403 440.354 115.776 445.265 110.75ZM446.358 109.289C441.976 102.94 430.647 101.553 424.861 106.657C424.048 103.64 425.677 100.909 428.542 99.3152C431.111 98.0406 433.997 97.5471 436.844 97.8956C439.691 98.2442 442.373 99.4195 444.558 101.276C446.953 103.519 447.876 106.554 446.358 109.289ZM417.113 102.684C416.925 102.812 416.795 103.01 416.752 103.233L416.752 103.234L416.544 104.329C416.501 104.553 416.549 104.784 416.677 104.972C416.805 105.161 417.002 105.29 417.226 105.333C417.45 105.376 417.681 105.328 417.869 105.2C418.058 105.072 418.187 104.874 418.23 104.65L418.439 103.555C418.481 103.331 418.433 103.1 418.305 102.911C418.177 102.723 417.98 102.593 417.756 102.551C417.532 102.508 417.301 102.556 417.113 102.684ZM412.921 107.981C412.743 108.115 412.624 108.313 412.589 108.534L412.445 109.711C412.426 109.933 412.493 110.154 412.633 110.327C412.774 110.501 412.976 110.613 413.197 110.64C413.419 110.667 413.642 110.607 413.82 110.473C413.998 110.338 414.117 110.14 414.151 109.92L414.295 108.743C414.315 108.52 414.247 108.299 414.107 108.126C413.967 107.953 413.765 107.841 413.543 107.814C413.322 107.787 413.099 107.846 412.921 107.981ZM421.216 110.482L420.865 109.691L420.865 109.688C420.82 109.585 420.795 109.474 420.792 109.362C420.789 109.249 420.809 109.137 420.849 109.032C420.89 108.927 420.95 108.831 421.028 108.75C421.106 108.668 421.199 108.603 421.301 108.557C421.404 108.512 421.515 108.487 421.628 108.484C421.74 108.481 421.852 108.501 421.957 108.541C422.062 108.582 422.158 108.642 422.24 108.72C422.321 108.798 422.387 108.89 422.432 108.993L422.783 109.787C422.876 109.995 422.881 110.231 422.8 110.443C422.718 110.655 422.555 110.826 422.347 110.918C422.139 111.01 421.904 111.016 421.692 110.934C421.479 110.852 421.309 110.689 421.216 110.482ZM449.502 111.507L450.807 110.621C450.995 110.499 451.223 110.455 451.443 110.5C451.663 110.544 451.856 110.673 451.982 110.858C452.108 111.044 452.156 111.271 452.117 111.492C452.077 111.712 451.952 111.909 451.77 112.038L450.466 112.925C450.278 113.052 450.047 113.1 449.824 113.058C449.601 113.015 449.403 112.886 449.276 112.698C449.148 112.51 449.1 112.279 449.142 112.055C449.185 111.832 449.314 111.635 449.502 111.507ZM453.755 111.192C453.714 111.297 453.694 111.409 453.696 111.522L453.706 112.046C453.71 112.273 453.805 112.49 453.969 112.648C454.133 112.806 454.353 112.892 454.581 112.888C454.808 112.884 455.025 112.789 455.183 112.625C455.341 112.461 455.427 112.241 455.423 112.013L455.412 111.489C455.41 111.376 455.386 111.265 455.341 111.162C455.296 111.059 455.231 110.965 455.15 110.887C455.068 110.809 454.972 110.747 454.868 110.706C454.763 110.665 454.651 110.645 454.538 110.647C454.425 110.649 454.314 110.674 454.211 110.719C454.107 110.764 454.014 110.829 453.936 110.91C453.857 110.991 453.796 111.087 453.755 111.192ZM451.748 104.219C451.539 104.299 451.37 104.457 451.276 104.66L450.754 105.865C450.669 106.073 450.669 106.306 450.754 106.514C450.839 106.722 451.002 106.889 451.208 106.978C451.414 107.067 451.647 107.072 451.857 106.991C452.067 106.91 452.236 106.75 452.329 106.546L452.851 105.339C452.934 105.132 452.933 104.9 452.848 104.693C452.762 104.486 452.6 104.321 452.394 104.232C452.189 104.144 451.957 104.139 451.748 104.219ZM434.187 90.8682C434.198 90.9827 434.232 91.0939 434.286 91.1951L434.531 91.6734C434.633 91.877 434.812 92.0316 435.029 92.1031C435.245 92.1747 435.481 92.1573 435.685 92.0549C435.888 91.9525 436.043 91.7735 436.114 91.5571C436.186 91.3408 436.169 91.1048 436.066 90.9013L435.822 90.4231C435.774 90.3189 435.705 90.2255 435.619 90.1485C435.534 90.0714 435.434 90.0123 435.325 89.9746C435.217 89.9369 435.102 89.9214 434.987 89.9289C434.872 89.9365 434.76 89.967 434.657 90.0187C434.554 90.0703 434.463 90.142 434.388 90.2296C434.314 90.3172 434.258 90.4188 434.223 90.5285C434.189 90.6382 434.176 90.7537 434.187 90.8682ZM442.639 92.5777C442.546 92.6414 442.466 92.723 442.404 92.8178L442.403 92.8176L442.033 93.3698C441.908 93.5591 441.863 93.7905 441.908 94.0131C441.953 94.2357 442.085 94.4313 442.274 94.5568C442.463 94.6823 442.695 94.7275 442.917 94.6824C443.14 94.6373 443.335 94.5056 443.461 94.3163L443.831 93.7641C443.894 93.6705 443.938 93.5652 443.961 93.4544C443.983 93.3436 443.983 93.2295 443.961 93.1186C443.939 93.0077 443.896 92.9022 443.833 92.8083C443.77 92.7144 443.689 92.6339 443.595 92.5714C443.501 92.5089 443.395 92.4657 443.284 92.4442C443.173 92.4228 443.059 92.4235 442.948 92.4464C442.838 92.4693 442.732 92.5139 442.639 92.5777ZM449.711 97.4421L450.355 97.0726C450.453 97.0166 450.56 96.9803 450.672 96.9659C450.783 96.9515 450.896 96.9591 451.005 96.9885C451.113 97.0178 451.215 97.0682 451.304 97.1369C451.393 97.2055 451.468 97.291 451.524 97.3885C451.58 97.486 451.616 97.5935 451.631 97.705C451.645 97.8165 451.637 97.9298 451.608 98.0383C451.579 98.1468 451.528 98.2485 451.46 98.3376C451.391 98.4266 451.305 98.5012 451.208 98.5572L450.565 98.9269C450.468 98.9829 450.36 99.0193 450.249 99.0338C450.137 99.0482 450.024 99.0406 449.915 99.0113C449.807 98.982 449.705 98.9316 449.616 98.863C449.527 98.7944 449.452 98.7089 449.396 98.6114C449.34 98.5139 449.304 98.4064 449.289 98.2948C449.275 98.1833 449.282 98.07 449.311 97.9614C449.341 97.8529 449.391 97.7511 449.46 97.662C449.528 97.5729 449.614 97.4982 449.711 97.4421ZM423.57 94.4106L423.421 93.7949L423.421 93.7939C423.395 93.6845 423.39 93.571 423.408 93.4598C423.425 93.3487 423.465 93.2421 423.523 93.1462C423.582 93.0502 423.659 92.9668 423.75 92.9007C423.841 92.8345 423.944 92.7869 424.054 92.7606C424.163 92.7343 424.277 92.7298 424.388 92.7474C424.499 92.765 424.605 92.8042 424.701 92.863C424.797 92.9218 424.881 92.9988 424.947 93.0898C425.013 93.1808 425.061 93.284 425.087 93.3934L425.236 94.0101C425.289 94.231 425.252 94.464 425.134 94.6578C425.015 94.8515 424.824 94.9902 424.603 95.0433C424.382 95.0964 424.149 95.0596 423.956 94.9409C423.762 94.8223 423.623 94.6315 423.57 94.4106ZM419.225 96.6486C419.245 96.762 419.288 96.8702 419.351 96.9668L420.035 98.0962C420.153 98.2909 420.343 98.4308 420.564 98.485C420.785 98.5393 421.019 98.5035 421.213 98.3856C421.408 98.2677 421.548 98.0773 421.602 97.8563C421.657 97.6353 421.621 97.4017 421.503 97.2071L420.82 96.0777C420.764 95.9772 420.688 95.889 420.597 95.8185C420.506 95.7479 420.401 95.6964 420.29 95.6671C420.178 95.6377 420.062 95.631 419.948 95.6474C419.834 95.6639 419.724 95.7031 419.626 95.7628C419.527 95.8224 419.442 95.9013 419.374 95.9947C419.307 96.0881 419.259 96.1942 419.233 96.3065C419.208 96.4188 419.205 96.5352 419.225 96.6486ZM430.242 94.0225L431.371 93.3387L431.362 93.3426C431.556 93.2336 431.785 93.2045 432.001 93.2613C432.216 93.3182 432.401 93.4565 432.516 93.6472C432.632 93.8378 432.669 94.0658 432.619 94.2831C432.569 94.5003 432.437 94.6898 432.251 94.8115L431.131 95.4915C431.034 95.5544 430.926 95.5972 430.813 95.6175C430.699 95.6377 430.583 95.635 430.47 95.6093C430.358 95.5837 430.252 95.5357 430.159 95.4682C430.065 95.4008 429.986 95.3152 429.927 95.2166C429.867 95.1181 429.828 95.0085 429.811 94.8945C429.795 94.7804 429.802 94.6642 429.831 94.5528C429.86 94.4414 429.912 94.337 429.982 94.2459C430.053 94.1548 430.141 94.0788 430.242 94.0225ZM457.002 109.24C456.871 109.422 456.817 109.648 456.851 109.869L457.032 110.862C457.075 111.082 457.203 111.276 457.388 111.402C457.573 111.529 457.8 111.578 458.021 111.539C458.241 111.5 458.438 111.376 458.568 111.194C458.699 111.012 458.753 110.787 458.719 110.565L458.539 109.572C458.495 109.352 458.367 109.158 458.182 109.032C457.997 108.905 457.77 108.856 457.55 108.895C457.329 108.934 457.132 109.058 457.002 109.24Z" fill="#9BCAE4"/>
<path d="M180.908 158.696V167H179.816V160.808L177.056 167H176.288L173.516 160.796V167H172.424V158.696H173.6L176.672 165.56L179.744 158.696H180.908ZM183.324 159.356C183.116 159.356 182.94 159.284 182.796 159.14C182.652 158.996 182.58 158.82 182.58 158.612C182.58 158.404 182.652 158.228 182.796 158.084C182.94 157.94 183.116 157.868 183.324 157.868C183.524 157.868 183.692 157.94 183.828 158.084C183.972 158.228 184.044 158.404 184.044 158.612C184.044 158.82 183.972 158.996 183.828 159.14C183.692 159.284 183.524 159.356 183.324 159.356ZM183.852 160.424V167H182.76V160.424H183.852ZM188.917 160.304C189.717 160.304 190.365 160.548 190.861 161.036C191.357 161.516 191.605 162.212 191.605 163.124V167H190.525V163.28C190.525 162.624 190.361 162.124 190.033 161.78C189.705 161.428 189.257 161.252 188.689 161.252C188.113 161.252 187.653 161.432 187.309 161.792C186.973 162.152 186.805 162.676 186.805 163.364V167H185.713V160.424H186.805V161.36C187.021 161.024 187.313 160.764 187.681 160.58C188.057 160.396 188.469 160.304 188.917 160.304ZM193.953 159.356C193.745 159.356 193.569 159.284 193.425 159.14C193.281 158.996 193.209 158.82 193.209 158.612C193.209 158.404 193.281 158.228 193.425 158.084C193.569 157.94 193.745 157.868 193.953 157.868C194.153 157.868 194.321 157.94 194.457 158.084C194.601 158.228 194.673 158.404 194.673 158.612C194.673 158.82 194.601 158.996 194.457 159.14C194.321 159.284 194.153 159.356 193.953 159.356ZM194.481 160.424V167H193.389V160.424H194.481ZM204.25 160.304C204.762 160.304 205.218 160.412 205.618 160.628C206.018 160.836 206.334 161.152 206.566 161.576C206.798 162 206.914 162.516 206.914 163.124V167H205.834V163.28C205.834 162.624 205.67 162.124 205.342 161.78C205.022 161.428 204.586 161.252 204.034 161.252C203.466 161.252 203.014 161.436 202.678 161.804C202.342 162.164 202.174 162.688 202.174 163.376V167H201.094V163.28C201.094 162.624 200.93 162.124 200.602 161.78C200.282 161.428 199.846 161.252 199.294 161.252C198.726 161.252 198.274 161.436 197.938 161.804C197.602 162.164 197.434 162.688 197.434 163.376V167H196.342V160.424H197.434V161.372C197.65 161.028 197.938 160.764 198.298 160.58C198.666 160.396 199.07 160.304 199.51 160.304C200.062 160.304 200.55 160.428 200.974 160.676C201.398 160.924 201.714 161.288 201.922 161.768C202.106 161.304 202.41 160.944 202.834 160.688C203.258 160.432 203.73 160.304 204.25 160.304ZM214.537 160.424V167H213.445V166.028C213.237 166.364 212.945 166.628 212.569 166.82C212.201 167.004 211.793 167.096 211.345 167.096C210.833 167.096 210.373 166.992 209.965 166.784C209.557 166.568 209.233 166.248 208.993 165.824C208.761 165.4 208.645 164.884 208.645 164.276V160.424H209.725V164.132C209.725 164.78 209.889 165.28 210.217 165.632C210.545 165.976 210.993 166.148 211.561 166.148C212.145 166.148 212.605 165.968 212.941 165.608C213.277 165.248 213.445 164.724 213.445 164.036V160.424H214.537ZM224.289 160.304C224.801 160.304 225.257 160.412 225.657 160.628C226.057 160.836 226.373 161.152 226.605 161.576C226.837 162 226.953 162.516 226.953 163.124V167H225.873V163.28C225.873 162.624 225.709 162.124 225.381 161.78C225.061 161.428 224.625 161.252 224.073 161.252C223.505 161.252 223.053 161.436 222.717 161.804C222.381 162.164 222.213 162.688 222.213 163.376V167H221.133V163.28C221.133 162.624 220.969 162.124 220.641 161.78C220.321 161.428 219.885 161.252 219.333 161.252C218.765 161.252 218.313 161.436 217.977 161.804C217.641 162.164 217.473 162.688 217.473 163.376V167H216.381V160.424H217.473V161.372C217.689 161.028 217.977 160.764 218.337 160.58C218.705 160.396 219.109 160.304 219.549 160.304C220.101 160.304 220.589 160.428 221.013 160.676C221.437 160.924 221.753 161.288 221.961 161.768C222.145 161.304 222.449 160.944 222.873 160.688C223.297 160.432 223.769 160.304 224.289 160.304ZM234.392 165.992L236.432 160.424H237.596L235.016 167H233.744L231.164 160.424H232.34L234.392 165.992ZM239.234 159.356C239.026 159.356 238.85 159.284 238.706 159.14C238.562 158.996 238.49 158.82 238.49 158.612C238.49 158.404 238.562 158.228 238.706 158.084C238.85 157.94 239.026 157.868 239.234 157.868C239.434 157.868 239.602 157.94 239.738 158.084C239.882 158.228 239.954 158.404 239.954 158.612C239.954 158.82 239.882 158.996 239.738 159.14C239.602 159.284 239.434 159.356 239.234 159.356ZM239.762 160.424V167H238.67V160.424H239.762ZM241.215 163.688C241.215 163.016 241.351 162.428 241.623 161.924C241.895 161.412 242.267 161.016 242.739 160.736C243.219 160.456 243.751 160.316 244.335 160.316C244.911 160.316 245.411 160.44 245.835 160.688C246.259 160.936 246.575 161.248 246.783 161.624V160.424H247.887V167H246.783V165.776C246.567 166.16 246.243 166.48 245.811 166.736C245.387 166.984 244.891 167.108 244.323 167.108C243.739 167.108 243.211 166.964 242.739 166.676C242.267 166.388 241.895 165.984 241.623 165.464C241.351 164.944 241.215 164.352 241.215 163.688ZM246.783 163.7C246.783 163.204 246.683 162.772 246.483 162.404C246.283 162.036 246.011 161.756 245.667 161.564C245.331 161.364 244.959 161.264 244.551 161.264C244.143 161.264 243.771 161.36 243.435 161.552C243.099 161.744 242.831 162.024 242.631 162.392C242.431 162.76 242.331 163.192 242.331 163.688C242.331 164.192 242.431 164.632 242.631 165.008C242.831 165.376 243.099 165.66 243.435 165.86C243.771 166.052 244.143 166.148 244.551 166.148C244.959 166.148 245.331 166.052 245.667 165.86C246.011 165.66 246.283 165.376 246.483 165.008C246.683 164.632 246.783 164.196 246.783 163.7ZM250.825 161.648C251.049 161.256 251.377 160.936 251.809 160.688C252.241 160.44 252.733 160.316 253.285 160.316C253.877 160.316 254.409 160.456 254.881 160.736C255.353 161.016 255.725 161.412 255.997 161.924C256.269 162.428 256.405 163.016 256.405 163.688C256.405 164.352 256.269 164.944 255.997 165.464C255.725 165.984 255.349 166.388 254.869 166.676C254.397 166.964 253.869 167.108 253.285 167.108C252.717 167.108 252.217 166.984 251.785 166.736C251.361 166.488 251.041 166.172 250.825 165.788V167H249.733V158.12H250.825V161.648ZM255.289 163.688C255.289 163.192 255.189 162.76 254.989 162.392C254.789 162.024 254.517 161.744 254.173 161.552C253.837 161.36 253.465 161.264 253.057 161.264C252.657 161.264 252.285 161.364 251.941 161.564C251.605 161.756 251.333 162.04 251.125 162.416C250.925 162.784 250.825 163.212 250.825 163.7C250.825 164.196 250.925 164.632 251.125 165.008C251.333 165.376 251.605 165.66 251.941 165.86C252.285 166.052 252.657 166.148 253.057 166.148C253.465 166.148 253.837 166.052 254.173 165.86C254.517 165.66 254.789 165.376 254.989 165.008C255.189 164.632 255.289 164.192 255.289 163.688ZM258.934 158.12V167H257.842V158.12H258.934ZM266.795 163.46C266.795 163.668 266.783 163.888 266.759 164.12H261.503C261.543 164.768 261.763 165.276 262.163 165.644C262.571 166.004 263.063 166.184 263.639 166.184C264.111 166.184 264.503 166.076 264.815 165.86C265.135 165.636 265.359 165.34 265.487 164.972H266.663C266.487 165.604 266.135 166.12 265.607 166.52C265.079 166.912 264.423 167.108 263.639 167.108C263.015 167.108 262.455 166.968 261.959 166.688C261.471 166.408 261.087 166.012 260.807 165.5C260.527 164.98 260.387 164.38 260.387 163.7C260.387 163.02 260.523 162.424 260.795 161.912C261.067 161.4 261.447 161.008 261.935 160.736C262.431 160.456 262.999 160.316 263.639 160.316C264.263 160.316 264.815 160.452 265.295 160.724C265.775 160.996 266.143 161.372 266.399 161.852C266.663 162.324 266.795 162.86 266.795 163.46ZM265.667 163.232C265.667 162.816 265.575 162.46 265.391 162.164C265.207 161.86 264.955 161.632 264.635 161.48C264.323 161.32 263.975 161.24 263.591 161.24C263.039 161.24 262.567 161.416 262.175 161.768C261.791 162.12 261.571 162.608 261.515 163.232H265.667ZM272.528 161.636C272.744 161.26 273.064 160.948 273.488 160.7C273.92 160.444 274.42 160.316 274.988 160.316C275.572 160.316 276.1 160.456 276.572 160.736C277.052 161.016 277.428 161.412 277.7 161.924C277.972 162.428 278.108 163.016 278.108 163.688C278.108 164.352 277.972 164.944 277.7 165.464C277.428 165.984 277.052 166.388 276.572 166.676C276.1 166.964 275.572 167.108 274.988 167.108C274.428 167.108 273.932 166.984 273.5 166.736C273.076 166.48 272.752 166.164 272.528 165.788V170.12H271.436V160.424H272.528V161.636ZM276.992 163.688C276.992 163.192 276.892 162.76 276.692 162.392C276.492 162.024 276.22 161.744 275.876 161.552C275.54 161.36 275.168 161.264 274.76 161.264C274.36 161.264 273.988 161.364 273.644 161.564C273.308 161.756 273.036 162.04 272.828 162.416C272.628 162.784 272.528 163.212 272.528 163.7C272.528 164.196 272.628 164.632 272.828 165.008C273.036 165.376 273.308 165.66 273.644 165.86C273.988 166.052 274.36 166.148 274.76 166.148C275.168 166.148 275.54 166.052 275.876 165.86C276.22 165.66 276.492 165.376 276.692 165.008C276.892 164.632 276.992 164.192 276.992 163.688ZM280.637 161.492C280.829 161.116 281.101 160.824 281.453 160.616C281.813 160.408 282.249 160.304 282.761 160.304V161.432H282.473C281.249 161.432 280.637 162.096 280.637 163.424V167H279.545V160.424H280.637V161.492ZM286.89 167.108C286.274 167.108 285.714 166.968 285.21 166.688C284.714 166.408 284.322 166.012 284.034 165.5C283.754 164.98 283.614 164.38 283.614 163.7C283.614 163.028 283.758 162.436 284.046 161.924C284.342 161.404 284.742 161.008 285.246 160.736C285.75 160.456 286.314 160.316 286.938 160.316C287.562 160.316 288.126 160.456 288.63 160.736C289.134 161.008 289.53 161.4 289.818 161.912C290.114 162.424 290.262 163.02 290.262 163.7C290.262 164.38 290.11 164.98 289.806 165.5C289.51 166.012 289.106 166.408 288.594 166.688C288.082 166.968 287.514 167.108 286.89 167.108ZM286.89 166.148C287.282 166.148 287.65 166.056 287.994 165.872C288.338 165.688 288.614 165.412 288.822 165.044C289.038 164.676 289.146 164.228 289.146 163.7C289.146 163.172 289.042 162.724 288.834 162.356C288.626 161.988 288.354 161.716 288.018 161.54C287.682 161.356 287.318 161.264 286.926 161.264C286.526 161.264 286.158 161.356 285.822 161.54C285.494 161.716 285.23 161.988 285.03 162.356C284.83 162.724 284.73 163.172 284.73 163.7C284.73 164.236 284.826 164.688 285.018 165.056C285.218 165.424 285.482 165.7 285.81 165.884C286.138 166.06 286.498 166.148 286.89 166.148ZM291.289 163.688C291.289 163.016 291.425 162.428 291.697 161.924C291.969 161.412 292.341 161.016 292.813 160.736C293.293 160.456 293.829 160.316 294.421 160.316C294.933 160.316 295.409 160.436 295.849 160.676C296.289 160.908 296.625 161.216 296.857 161.6V158.12H297.961V167H296.857V165.764C296.641 166.156 296.321 166.48 295.897 166.736C295.473 166.984 294.977 167.108 294.409 167.108C293.825 167.108 293.293 166.964 292.813 166.676C292.341 166.388 291.969 165.984 291.697 165.464C291.425 164.944 291.289 164.352 291.289 163.688ZM296.857 163.7C296.857 163.204 296.757 162.772 296.557 162.404C296.357 162.036 296.085 161.756 295.741 161.564C295.405 161.364 295.033 161.264 294.625 161.264C294.217 161.264 293.845 161.36 293.509 161.552C293.173 161.744 292.905 162.024 292.705 162.392C292.505 162.76 292.405 163.192 292.405 163.688C292.405 164.192 292.505 164.632 292.705 165.008C292.905 165.376 293.173 165.66 293.509 165.86C293.845 166.052 294.217 166.148 294.625 166.148C295.033 166.148 295.405 166.052 295.741 165.86C296.085 165.66 296.357 165.376 296.557 165.008C296.757 164.632 296.857 164.196 296.857 163.7ZM305.639 160.424V167H304.547V166.028C304.339 166.364 304.047 166.628 303.671 166.82C303.303 167.004 302.895 167.096 302.447 167.096C301.935 167.096 301.475 166.992 301.067 166.784C300.659 166.568 300.335 166.248 300.095 165.824C299.863 165.4 299.747 164.884 299.747 164.276V160.424H300.827V164.132C300.827 164.78 300.991 165.28 301.319 165.632C301.647 165.976 302.095 166.148 302.663 166.148C303.247 166.148 303.707 165.968 304.043 165.608C304.379 165.248 304.547 164.724 304.547 164.036V160.424H305.639ZM307.075 163.7C307.075 163.02 307.211 162.428 307.483 161.924C307.755 161.412 308.131 161.016 308.611 160.736C309.099 160.456 309.655 160.316 310.279 160.316C311.087 160.316 311.751 160.512 312.271 160.904C312.799 161.296 313.147 161.84 313.315 162.536H312.139C312.027 162.136 311.807 161.82 311.479 161.588C311.159 161.356 310.759 161.24 310.279 161.24C309.655 161.24 309.151 161.456 308.767 161.888C308.383 162.312 308.191 162.916 308.191 163.7C308.191 164.492 308.383 165.104 308.767 165.536C309.151 165.968 309.655 166.184 310.279 166.184C310.759 166.184 311.159 166.072 311.479 165.848C311.799 165.624 312.019 165.304 312.139 164.888H313.315C313.139 165.56 312.787 166.1 312.259 166.508C311.731 166.908 311.071 167.108 310.279 167.108C309.655 167.108 309.099 166.968 308.611 166.688C308.131 166.408 307.755 166.012 307.483 165.5C307.211 164.988 307.075 164.388 307.075 163.7ZM316.104 161.324V165.2C316.104 165.52 316.172 165.748 316.308 165.884C316.444 166.012 316.68 166.076 317.016 166.076H317.82V167H316.836C316.228 167 315.772 166.86 315.468 166.58C315.164 166.3 315.012 165.84 315.012 165.2V161.324H314.16V160.424H315.012V158.768H316.104V160.424H317.82V161.324H316.104Z" fill="black"/>
<path fill-rule="evenodd" clip-rule="evenodd" d="M243.384 80.6906C246.6 80.3075 249.855 80.94 252.693 82.4997C258.265 85.7401 258.908 91.9851 254.114 96.2928C251.625 98.3531 248.582 99.6295 245.368 99.9603C242.155 100.291 238.915 99.6618 236.059 98.1517C230.488 94.9113 229.845 88.6663 234.639 84.3587C237.1 82.2534 240.158 80.9708 243.384 80.6906ZM221.837 105.592C223.373 107.44 225.197 109.028 227.239 110.293C238.598 117.467 255.563 115.72 265.222 106.382C274.998 96.9311 273.592 83.2783 262.096 76.0136C250.736 68.8393 233.771 70.5861 224.112 79.9245C219.584 84.3053 217.089 89.9868 217.701 95.9303C218.087 99.4912 219.527 102.856 221.837 105.592ZM268.5 98.9271C266.743 99.8481 264.765 100.265 262.786 100.133L263.049 102.687C263.307 105.199 259.656 106.841 257.188 105.418C256.815 105.223 256.495 104.94 256.254 104.595C256.013 104.249 255.859 103.851 255.805 103.433C255.588 101.324 254.804 99.4084 253.423 99.7306C253.02 99.8455 252.654 100.066 252.364 100.369C251.114 101.579 250.179 104.142 250.539 107.635C250.797 110.146 247.146 111.789 244.678 110.365C244.305 110.17 243.985 109.888 243.744 109.542C243.503 109.197 243.349 108.798 243.295 108.38L242.824 103.805C241.748 104.087 240.604 103.937 239.638 103.385L239.927 106.19C240.185 108.701 236.534 110.343 234.067 108.92C233.693 108.725 233.372 108.442 233.131 108.096C232.89 107.75 232.736 107.351 232.682 106.933L232.11 101.381C232.005 101.098 231.825 100.848 231.589 100.659C231.353 100.469 231.07 100.348 230.77 100.307C229.662 100.067 228.079 100.532 228.218 101.726L228.465 104.128C228.467 104.861 228.211 105.572 227.742 106.136C227.274 106.7 226.622 107.081 225.901 107.214C236.357 115.798 254.274 114.584 264.029 105.147C265.895 103.372 267.412 101.261 268.499 98.9262L268.5 98.9271ZM222.664 103.857C223.304 104.65 223.95 105.753 224.967 105.648C225.796 105.563 226.833 105.007 226.76 104.304L226.508 101.798C226.466 101.259 226.58 100.719 226.836 100.243C227.092 99.7665 227.479 99.3737 227.952 99.1112C229.899 97.9325 233.177 98.5178 233.798 101.032C234.127 102.376 234.241 105.233 234.398 106.756C234.496 107.707 236.679 108.165 237.836 107.132C237.956 107.042 238.053 106.926 238.119 106.793C238.186 106.659 238.221 106.512 238.22 106.363L237.857 102.829C237.862 102.552 237.945 102.282 238.097 102.051C238.249 101.819 238.464 101.635 238.716 101.52C238.968 101.405 239.247 101.364 239.522 101.401C239.797 101.438 240.055 101.552 240.268 101.729C241.383 102.643 242.569 101.979 243.208 102.022C243.521 102.027 243.821 102.144 244.056 102.35C244.29 102.557 244.444 102.84 244.488 103.15L245.009 108.204C245.107 109.155 247.291 109.614 248.447 108.58C248.567 108.49 248.664 108.374 248.731 108.241C248.798 108.107 248.832 107.96 248.832 107.81C248.412 103.74 249.603 100.656 251.174 99.1348C251.649 98.5885 252.291 98.2141 253 98.0697C253.709 97.9252 254.446 98.0188 255.097 98.3358C256.286 98.9864 257.238 100.574 257.514 103.257C257.612 104.208 259.796 104.666 260.953 103.633C261.073 103.543 261.17 103.427 261.237 103.294C261.303 103.16 261.338 103.013 261.338 102.863L261.02 99.7797C261.018 99.5552 261.068 99.3333 261.168 99.1321C261.268 98.9309 261.413 98.7561 261.594 98.622C261.774 98.4879 261.983 98.3983 262.204 98.3604C262.425 98.3226 262.653 98.3376 262.867 98.4043C263.852 98.5562 264.86 98.4615 265.799 98.1286C267.065 97.7444 268.274 97.193 269.394 96.4887C269.946 94.5619 270.125 92.5474 269.922 90.5534C269.367 85.1619 266.065 80.5549 261.175 77.4655C250.49 70.7124 234.391 72.37 225.304 81.1589C218.672 87.577 217.221 96.6402 222.658 103.857L222.664 103.857ZM254.631 93.0587C249.809 87.9438 238.584 89.0995 234.905 95.0898C239.719 100.21 250.962 99.0511 254.631 93.0587ZM233.828 93.6093C238.332 87.3451 249.686 86.176 255.371 91.3912C256.243 88.3861 254.668 85.6329 251.834 83.9795C249.289 82.6558 246.413 82.1069 243.56 82.4006C240.708 82.6943 238.003 83.8179 235.782 85.6322C233.344 87.8235 232.364 90.8488 233.828 93.6093ZM225.161 92.076C225.152 91.8485 225.235 91.6271 225.39 91.4604C225.545 91.2937 225.76 91.1954 225.987 91.1872C226.215 91.179 226.436 91.2614 226.603 91.4165C226.77 91.5716 226.868 91.7865 226.876 92.014L226.917 93.1287C226.925 93.3562 226.842 93.5777 226.687 93.7444C226.532 93.9111 226.317 94.0093 226.09 94.0176C225.862 94.0258 225.641 93.9433 225.474 93.7883C225.307 93.6332 225.209 93.4183 225.201 93.1908L225.161 92.077L225.161 92.076ZM222.282 98.17C222.266 97.9475 222.338 97.7278 222.482 97.5572C222.625 97.3866 222.83 97.2785 223.051 97.2556C223.273 97.2328 223.495 97.297 223.671 97.4347C223.846 97.5725 223.961 97.773 223.992 97.9939L224.113 99.1737C224.128 99.3961 224.056 99.6159 223.913 99.7865C223.769 99.957 223.565 100.065 223.343 100.088C223.121 100.111 222.899 100.047 222.724 99.9089C222.548 99.7711 222.433 99.5707 222.403 99.3497L222.282 98.17ZM230.607 97.4565L231.126 98.149C231.262 98.3311 231.465 98.4517 231.69 98.4842C231.915 98.5168 232.143 98.4586 232.325 98.3225C232.508 98.1865 232.628 97.9837 232.661 97.7587C232.693 97.5337 232.635 97.305 232.499 97.123L231.98 96.4274C231.913 96.3373 231.828 96.2613 231.731 96.2038C231.635 96.1462 231.528 96.1083 231.416 96.0922C231.305 96.0761 231.191 96.0821 231.082 96.1098C230.973 96.1376 230.871 96.1865 230.78 96.2539C230.69 96.3213 230.614 96.4057 230.557 96.5025C230.499 96.5992 230.461 96.7064 230.445 96.8177C230.429 96.9291 230.435 97.0426 230.463 97.1517C230.491 97.2608 230.54 97.3633 230.607 97.4535L230.607 97.4565ZM260.005 91.6992L258.931 92.8533C258.776 93.0197 258.694 93.2409 258.702 93.4681C258.71 93.6952 258.808 93.9098 258.975 94.0647C259.141 94.2195 259.362 94.3019 259.589 94.2937C259.816 94.2854 260.031 94.1873 260.186 94.0209L261.259 92.8669C261.409 92.6996 261.486 92.4805 261.476 92.2566C261.466 92.0327 261.368 91.8218 261.204 91.669C261.04 91.5163 260.822 91.4339 260.598 91.4395C260.374 91.4452 260.161 91.5384 260.005 91.6992ZM263.022 91.9344C262.995 91.825 262.99 91.7113 263.006 91.5998C263.023 91.4883 263.062 91.3812 263.12 91.2846C263.178 91.1881 263.255 91.1039 263.345 91.0369C263.436 90.9699 263.539 90.9215 263.648 90.8943C263.758 90.8671 263.872 90.8618 263.983 90.8785C264.094 90.8953 264.202 90.9339 264.298 90.992C264.395 91.0502 264.479 91.1268 264.546 91.2175C264.613 91.3081 264.661 91.4111 264.689 91.5206L264.815 92.0292C264.87 92.2502 264.835 92.4839 264.718 92.679C264.6 92.8741 264.41 93.0145 264.189 93.0694C263.968 93.1242 263.734 93.0891 263.539 92.9716C263.344 92.8542 263.204 92.6641 263.149 92.4431L263.022 91.9344ZM259.136 85.7831C259.182 85.5644 259.312 85.3724 259.498 85.2481C259.684 85.1238 259.911 85.077 260.131 85.1176C260.351 85.1583 260.546 85.2832 260.675 85.4658C260.805 85.6483 260.857 85.8741 260.822 86.095L260.583 87.3874C260.537 87.6075 260.408 87.8011 260.221 87.9265C260.035 88.052 259.807 88.0993 259.586 88.0584C259.365 88.0174 259.169 87.8914 259.04 87.7074C258.911 87.5234 258.859 87.2962 258.896 87.0745L259.136 85.7831ZM239.576 76.4374C239.5 76.3508 239.442 76.2499 239.406 76.1407C239.37 76.0315 239.356 75.9162 239.366 75.8015C239.375 75.6869 239.407 75.5753 239.46 75.4733C239.514 75.3714 239.587 75.2811 239.675 75.2079C239.764 75.1347 239.866 75.08 239.977 75.0471C240.087 75.0141 240.203 75.0037 240.317 75.0162C240.431 75.0288 240.542 75.0642 240.642 75.1203C240.743 75.1764 240.831 75.2521 240.901 75.3428L241.245 75.7547C241.391 75.9304 241.46 76.1566 241.438 76.3834C241.417 76.6103 241.306 76.8193 241.13 76.9644C240.955 77.1095 240.728 77.1789 240.502 77.1573C240.275 77.1357 240.066 77.0249 239.921 76.8492L239.576 76.4374ZM247.851 76.2126C247.89 76.1065 247.95 76.0092 248.027 75.9263C248.103 75.8434 248.196 75.7765 248.299 75.7295C248.402 75.6825 248.513 75.6564 248.626 75.6526C248.739 75.6488 248.851 75.6674 248.957 75.7074C249.063 75.7473 249.16 75.8079 249.242 75.8854C249.324 75.963 249.39 76.0561 249.436 76.1593C249.482 76.2626 249.507 76.3739 249.51 76.4869C249.513 76.5999 249.493 76.7124 249.452 76.8177L249.215 77.4384C249.135 77.6508 248.973 77.8228 248.766 77.9163C248.559 78.0098 248.324 78.0173 248.111 77.937C247.899 77.8568 247.727 77.6954 247.633 77.4884C247.54 77.2815 247.532 77.0458 247.612 76.8333L247.85 76.2127L247.851 76.2126ZM256.549 78.5912L256.004 79.0947C255.922 79.171 255.855 79.2629 255.808 79.3651C255.761 79.4672 255.734 79.5776 255.73 79.69C255.725 79.8024 255.743 79.9145 255.782 80.02C255.821 80.1255 255.88 80.2223 255.957 80.3049C256.033 80.3875 256.125 80.4542 256.227 80.5012C256.329 80.5483 256.44 80.5748 256.552 80.5792C256.665 80.5836 256.777 80.5658 256.882 80.5268C256.988 80.4879 257.084 80.4285 257.167 80.3522L257.711 79.8488C257.794 79.7725 257.861 79.6807 257.908 79.5786C257.955 79.4765 257.981 79.3662 257.986 79.2538C257.99 79.1415 257.973 79.0294 257.934 78.9239C257.895 78.8184 257.836 78.7216 257.759 78.639C257.683 78.5565 257.591 78.4897 257.489 78.4426C257.387 78.3955 257.277 78.369 257.164 78.3646C257.052 78.3601 256.94 78.3778 256.834 78.4167C256.729 78.4556 256.632 78.5149 256.549 78.5912ZM229.561 81.3901L229.844 81.9572C229.945 82.1607 230.122 82.3159 230.338 82.3884C230.553 82.461 230.788 82.445 230.992 82.3441C231.195 82.2431 231.351 82.0655 231.423 81.8501C231.496 81.6348 231.48 81.3995 231.379 81.1959L231.096 80.6279C231.046 80.5271 230.977 80.4371 230.892 80.3631C230.807 80.2891 230.709 80.2326 230.602 80.1966C230.496 80.1607 230.383 80.1461 230.271 80.1537C230.158 80.1613 230.049 80.191 229.948 80.241C229.847 80.2909 229.757 80.3603 229.683 80.445C229.609 80.5298 229.553 80.6283 229.517 80.7349C229.481 80.8415 229.466 80.9542 229.474 81.0664C229.481 81.1787 229.511 81.2883 229.561 81.3891L229.561 81.3901ZM226.3 85.3882C226.217 85.3081 226.151 85.2122 226.106 85.1061C226.061 85 226.038 84.886 226.038 84.7707C226.038 84.6555 226.061 84.5415 226.106 84.4354C226.151 84.3293 226.217 84.2334 226.299 84.1532C226.382 84.0731 226.48 84.0105 226.588 83.9691C226.695 83.9277 226.81 83.9083 226.925 83.9122C227.041 83.916 227.154 83.943 227.258 83.9915C227.363 84.04 227.456 84.1091 227.534 84.1945L228.451 85.1436C228.609 85.3071 228.696 85.5268 228.692 85.7544C228.688 85.982 228.595 86.1987 228.431 86.357C228.267 86.5153 228.048 86.6021 227.82 86.5984C227.593 86.5947 227.376 86.5007 227.218 86.3372L226.3 85.3882ZM237.211 79.176L236.262 80.094C236.176 80.1713 236.107 80.265 236.059 80.3695C236.01 80.474 235.983 80.5872 235.979 80.7024C235.975 80.8176 235.995 80.9323 236.036 81.0398C236.078 81.1474 236.14 81.2455 236.22 81.3283C236.301 81.4111 236.396 81.477 236.503 81.522C236.609 81.5669 236.723 81.5901 236.838 81.5901C236.953 81.5901 237.067 81.5669 237.173 81.5219C237.279 81.4769 237.375 81.4111 237.455 81.3282L238.396 80.4161C238.551 80.2559 238.637 80.0418 238.637 79.819C238.637 79.5961 238.551 79.382 238.396 79.2218C238.241 79.0616 238.03 78.9679 237.807 78.9605C237.584 78.953 237.367 79.0324 237.202 79.1819L237.211 79.176ZM265.73 89.6209C265.648 89.4126 265.651 89.1803 265.737 88.9739C265.824 88.7674 265.988 88.6031 266.195 88.5161C266.401 88.4292 266.633 88.4265 266.842 88.5086C267.05 88.5908 267.218 88.7512 267.31 88.9556L267.707 89.8838C267.789 90.0921 267.787 90.3243 267.7 90.5308C267.613 90.7373 267.449 90.9016 267.242 90.9885C267.036 91.0755 266.804 91.0782 266.595 90.996C266.387 90.9139 266.219 90.7535 266.128 90.5491L265.73 89.6209Z" fill="#9BCAE4"/>
</svg>
