<svg width="16" height="17" viewBox="0 0 16 17" fill="none" xmlns="http://www.w3.org/2000/svg">
<path d="M2.65548 9.2397L15.5865 9.2397C15.6962 9.2397 15.8014 9.19614 15.8789 9.1186C15.9564 9.04106 16 8.9359 16 8.82624L16 8.17651C16 8.06685 15.9564 7.96169 15.8789 7.88415C15.8014 7.80661 15.6962 7.76305 15.5865 7.76305L2.65548 7.76305L8.6662 1.75233C8.70469 1.71399 8.73523 1.66842 8.75606 1.61825C8.7769 1.56808 8.78762 1.51428 8.78762 1.45995C8.78762 1.40563 8.7769 1.35183 8.75606 1.30166C8.73523 1.25149 8.70469 1.20592 8.6662 1.16758L8.20696 0.708338C8.16862 0.669852 8.12305 0.639314 8.07288 0.618478C8.02271 0.597641 7.96891 0.586915 7.91459 0.586915C7.86026 0.586915 7.80646 0.597641 7.75629 0.618478C7.70612 0.639314 7.66055 0.669851 7.62221 0.708338L0.120809 8.20604C0.0434411 8.28368 -1.36413e-06 8.38881 -1.38329e-06 8.49842C-1.40246e-06 8.60802 0.043441 8.71316 0.120809 8.7908L7.62221 16.2915C7.66055 16.3299 7.70612 16.3605 7.75629 16.3813C7.80646 16.4022 7.86025 16.4129 7.91458 16.4129C7.96891 16.4129 8.0227 16.4022 8.07288 16.3813C8.12305 16.3605 8.16862 16.3299 8.20696 16.2915L8.6662 15.8322C8.70469 15.7939 8.73522 15.7483 8.75606 15.6981C8.7769 15.648 8.78762 15.5942 8.78762 15.5398C8.78762 15.4855 8.7769 15.4317 8.75606 15.3815C8.73522 15.3314 8.70469 15.2858 8.6662 15.2475L2.65548 9.2397Z" fill="#633E2C"/>
</svg>
