<svg width="16" height="17" viewBox="0 0 16 17" fill="none" xmlns="http://www.w3.org/2000/svg">
<path d="M2.65548 9.23982L15.5865 9.23982C15.6962 9.23982 15.8014 9.19626 15.8789 9.11872C15.9564 9.04118 16 8.93602 16 8.82636L16 8.17663C16 8.06698 15.9564 7.96181 15.8789 7.88427C15.8014 7.80673 15.6962 7.76317 15.5865 7.76317L2.65548 7.76317L8.6662 1.75245C8.70469 1.71411 8.73523 1.66854 8.75606 1.61837C8.7769 1.5682 8.78762 1.5144 8.78762 1.46008C8.78762 1.40575 8.7769 1.35196 8.75606 1.30178C8.73523 1.25161 8.70469 1.20604 8.6662 1.1677L8.20696 0.70846C8.16862 0.669974 8.12305 0.639436 8.07288 0.6186C8.02271 0.597763 7.96891 0.587038 7.91459 0.587038C7.86026 0.587038 7.80646 0.597763 7.75629 0.6186C7.70612 0.639436 7.66055 0.669974 7.62221 0.70846L0.120809 8.20616C0.0434411 8.2838 -1.36413e-06 8.38894 -1.38329e-06 8.49854C-1.40246e-06 8.60815 0.043441 8.71328 0.120809 8.79092L7.62221 16.2916C7.66055 16.3301 7.70612 16.3606 7.75629 16.3814C7.80646 16.4023 7.86025 16.413 7.91458 16.413C7.96891 16.413 8.0227 16.4023 8.07288 16.3814C8.12305 16.3606 8.16862 16.3301 8.20696 16.2916L8.6662 15.8323C8.70469 15.794 8.73522 15.7484 8.75606 15.6983C8.7769 15.6481 8.78762 15.5943 8.78762 15.54C8.78762 15.4856 8.7769 15.4318 8.75606 15.3817C8.73522 15.3315 8.70469 15.2859 8.6662 15.2476L2.65548 9.23982Z" fill="#731DD8"/>
</svg>
