<svg width="5" height="8" viewBox="0 0 5 8" fill="none" xmlns="http://www.w3.org/2000/svg">
<path d="M4.00907 8C3.96058 8.00004 3.91257 7.9904 3.86786 7.97164C3.82314 7.95288 3.78262 7.92537 3.74868 7.89074L0.106811 4.15783C0.0729506 4.124 0.0460884 4.08384 0.0277609 4.03963C0.0094335 3.99542 0 3.94803 0 3.90017C0 3.85231 0.0094335 3.80492 0.0277609 3.7607C0.0460884 3.71649 0.0729506 3.67633 0.106811 3.6425L3.74868 0.0916803C3.81871 0.0295954 3.90995 -0.0031493 4.00347 0.000239004C4.09699 0.00362731 4.18562 0.0428884 4.25097 0.109878C4.31632 0.176867 4.35338 0.266443 4.35445 0.360022C4.35552 0.453601 4.32052 0.544001 4.25672 0.612468L0.88253 3.91018L4.26947 7.38088C4.31969 7.43212 4.35366 7.49705 4.36711 7.56752C4.38057 7.63799 4.37291 7.71087 4.34509 7.77701C4.31728 7.84314 4.27055 7.89959 4.21077 7.93926C4.15099 7.97893 4.08082 8.00006 4.00907 8Z" fill="#545454"/>
</svg>
