<svg width="16" height="16" viewBox="0 0 16 16" fill="none" xmlns="http://www.w3.org/2000/svg">
<path fill-rule="evenodd" clip-rule="evenodd" d="M5.92285 7.4108L10.2548 3.07888L12.9213 5.74539L8.58936 10.0773C8.38396 10.2827 8.11303 10.4096 7.82375 10.4359L5.33831 10.6618L5.56426 8.17642C5.59055 7.88713 5.71745 7.6162 5.92285 7.4108ZM11.1976 2.13606L13.8641 4.80256L14.3031 4.36354C14.788 3.87862 14.788 3.0924 14.3031 2.60747L13.3927 1.69704C12.9077 1.21211 12.1216 1.21211 11.6367 1.69704L11.1976 2.13606ZM5.40429 11.9947C4.60352 12.0675 3.93267 11.3967 4.00546 10.5959L4.23639 8.0557C4.29093 7.45578 4.55408 6.89394 4.98004 6.46798L10.6938 0.754228C11.6995 -0.251409 13.3299 -0.251409 14.3355 0.754228L15.2459 1.66465C16.2516 2.67029 16.2516 4.30073 15.2459 5.30637L9.53218 11.0202C9.10622 11.446 8.5444 11.7092 7.94446 11.7638L5.40429 11.9947ZM1.33335 5.2259C1.33335 4.45269 1.96015 3.82589 2.73336 3.82589H5.0436C5.41179 3.82589 5.71027 3.5274 5.71027 3.15921C5.71027 2.79102 5.41179 2.49254 5.0436 2.49254H2.73336C1.22377 2.49254 0 3.71631 0 5.2259V13.2669C0 14.7765 1.22377 16.0002 2.73336 16.0002H10.7743C12.2839 16.0002 13.5076 14.7765 13.5076 13.2669V10.9566C13.5076 10.5884 13.2092 10.2899 12.8409 10.2899C12.4728 10.2899 12.1743 10.5884 12.1743 10.9566V13.2669C12.1743 14.0401 11.5475 14.6669 10.7743 14.6669H2.73336C1.96015 14.6669 1.33335 14.0401 1.33335 13.2669V5.2259Z" fill="#731DD8"/>
</svg>
