<svg width="98" height="23" viewBox="0 0 98 23" fill="none" xmlns="http://www.w3.org/2000/svg">
<g id="Layer 1">
<g id="Group">
<g id="Group_2">
<path id="Vector" d="M11.9412 0.333333C12.1814 0.555556 12.3015 0.854701 12.3015 1.23077V17.0769C12.3015 17.4701 12.1857 17.7778 11.954 18C11.7224 18.2222 11.4093 18.3333 11.0147 18.3333C10.6201 18.3333 10.307 18.2222 10.0754 18C9.84375 17.7778 9.72794 17.4701 9.72794 17.0769V16.0513C9.35049 16.8034 8.80147 17.3803 8.08088 17.7821C7.36029 18.1838 6.52819 18.3846 5.58456 18.3846C4.50368 18.3846 3.5386 18.1111 2.68934 17.5641C1.84007 17.0171 1.17953 16.2479 0.707721 15.2564C0.235907 14.265 0 13.1282 0 11.8462C0 10.5641 0.235907 9.41026 0.707721 8.4359C1.17953 7.46154 1.83578 6.7094 2.67647 6.17949C3.51716 5.64957 4.48652 5.38462 5.58456 5.38462C6.52819 5.38462 7.35601 5.58547 8.06802 5.98718C8.78003 6.38889 9.32476 6.95727 9.70221 7.69231V1.17949C9.70221 0.820513 9.81802 0.534188 10.0496 0.320513C10.2813 0.106838 10.5944 0 10.989 0C11.3836 0 11.701 0.111111 11.9412 0.333333ZM8.80147 15.1795C9.41912 14.4103 9.72794 13.3162 9.72794 11.8974C9.72794 10.4786 9.42341 9.38462 8.81434 8.61539C8.20527 7.84615 7.33456 7.46154 6.20221 7.46154C5.06985 7.46154 4.19056 7.84188 3.56434 8.60256C2.93811 9.36325 2.625 10.4444 2.625 11.8462C2.625 13.2479 2.9424 14.3462 3.57721 15.141C4.21201 15.9359 5.08701 16.3333 6.20221 16.3333C7.3174 16.3333 8.18382 15.9487 8.80147 15.1795Z" fill="white"/>
<path id="Vector_2" d="M16.3033 18.0255C16.0546 17.8204 15.9302 17.5127 15.9302 17.1025V6.6922C15.9302 6.28194 16.0546 5.96998 16.3033 5.7563C16.5521 5.54263 16.8652 5.43579 17.2427 5.43579C17.6201 5.43579 17.929 5.54263 18.1691 5.7563C18.4093 5.96998 18.5294 6.28194 18.5294 6.6922V17.1025C18.5294 17.5127 18.4093 17.8204 18.1691 18.0255C17.929 18.2307 17.6201 18.3332 17.2427 18.3332C16.8652 18.3332 16.5521 18.2307 16.3033 18.0255Z" fill="white"/>
<path id="Vector_3" d="M33.4945 5.78208C33.7261 6.01285 33.8419 6.31627 33.8419 6.69234V17.2052C33.8419 19.1197 33.3315 20.5641 32.3107 21.5385C31.2898 22.5128 29.7843 23 27.7941 23C25.9412 23 24.3971 22.6496 23.1618 21.9487C22.527 21.5898 22.2096 21.1624 22.2096 20.6667C22.2096 20.3761 22.2911 20.1368 22.454 19.9487C22.617 19.7607 22.8186 19.6667 23.0588 19.6667C23.2819 19.6667 23.6336 19.7949 24.114 20.0513C24.7316 20.3419 25.3064 20.5684 25.8382 20.7308C26.3701 20.8932 27.0049 20.9744 27.7426 20.9744C30.1103 20.9744 31.2941 19.7864 31.2941 17.4103V15.4359C30.9338 16.1881 30.3848 16.7735 29.6471 17.1923C28.9093 17.6111 28.0515 17.8205 27.0735 17.8205C25.9755 17.8205 24.9975 17.5641 24.1397 17.0513C23.2819 16.5385 22.617 15.812 22.1452 14.8718C21.6734 13.9317 21.4375 12.8462 21.4375 11.6154C21.4375 10.3846 21.6777 9.29917 22.1581 8.359C22.6385 7.41883 23.3033 6.68806 24.1526 6.16669C25.0018 5.64533 25.9755 5.38464 27.0735 5.38464C28.0343 5.38464 28.8793 5.58977 29.6085 6.00003C30.3376 6.41028 30.8909 6.99148 31.2684 7.74362V6.66669C31.2684 6.29063 31.3842 5.99148 31.6158 5.76926C31.8474 5.54704 32.1605 5.43593 32.5551 5.43593C32.9498 5.43593 33.2629 5.55131 33.4945 5.78208ZM30.3162 14.6667C30.951 13.9317 31.2684 12.9146 31.2684 11.6154C31.2684 10.3163 30.9553 9.32054 30.329 8.57695C29.7028 7.83336 28.8235 7.46157 27.6912 7.46157C26.5588 7.46157 25.671 7.82909 25.0276 8.56413C24.3842 9.29917 24.0625 10.3163 24.0625 11.6154C24.0625 12.9146 24.3885 13.9317 25.0404 14.6667C25.6924 15.4017 26.576 15.7693 27.6912 15.7693C28.8064 15.7693 29.6814 15.4017 30.3162 14.6667Z" fill="white"/>
<path id="Vector_4" d="M37.8439 18.0255C37.5951 17.8204 37.4707 17.5127 37.4707 17.1025V6.6922C37.4707 6.28194 37.5951 5.96998 37.8439 5.7563C38.0926 5.54263 38.4058 5.43579 38.7832 5.43579C39.1607 5.43579 39.4695 5.54263 39.7097 5.7563C39.9499 5.96998 40.07 6.28194 40.07 6.6922V17.1025C40.07 17.5127 39.9499 17.8204 39.7097 18.0255C39.4695 18.2307 39.1607 18.3332 38.7832 18.3332C38.4058 18.3332 38.0926 18.2307 37.8439 18.0255Z" fill="white"/>
<path id="Vector_5" d="M44.0719 18.0256C43.8231 17.8205 43.6987 17.5128 43.6987 17.1026V1.25641C43.6987 0.846154 43.8231 0.534188 44.0719 0.320513C44.3207 0.106838 44.6338 0 45.0112 0C45.3887 0 45.6975 0.106838 45.9377 0.320513C46.1779 0.534188 46.298 0.846154 46.298 1.25641V17.1026C46.298 17.5128 46.1779 17.8205 45.9377 18.0256C45.6975 18.2308 45.3887 18.3333 45.0112 18.3333C44.6338 18.3333 44.3207 18.2308 44.0719 18.0256Z" fill="white"/>
<path id="Vector_6" d="M60.3494 15.3334C60.5038 15.5214 60.5811 15.7607 60.5811 16.0513C60.5811 16.547 60.2722 16.9658 59.6546 17.3077C59.0541 17.6496 58.3978 17.9146 57.6858 18.1026C56.9738 18.2906 56.2918 18.3846 55.6399 18.3846C53.6497 18.3846 52.0798 17.8077 50.9303 16.6539C49.7808 15.5 49.2061 13.9231 49.2061 11.9231C49.2061 10.6411 49.4591 9.5043 49.9652 8.51285C50.4714 7.5214 51.1834 6.75216 52.1013 6.20516C53.0192 5.65815 54.0614 5.38464 55.2281 5.38464C56.9095 5.38464 58.2391 5.9231 59.2171 7.00003C60.195 8.07695 60.684 9.52994 60.684 11.359C60.684 12.0428 60.3752 12.3846 59.7575 12.3846H51.8053C51.9769 15.0342 53.2551 16.359 55.6399 16.359C56.2747 16.359 56.8237 16.2735 57.2869 16.1026C57.7502 15.9317 58.2391 15.7094 58.7538 15.4359C58.8053 15.4017 58.9469 15.3291 59.1785 15.218C59.4101 15.1069 59.6031 15.0513 59.7575 15.0513C59.9977 15.0513 60.195 15.1453 60.3494 15.3334ZM52.8862 8.2308C52.2857 8.86328 51.9254 9.75216 51.8053 10.8975H58.445C58.3936 9.73507 58.0976 8.84191 57.5572 8.21798C57.0167 7.59404 56.2575 7.28208 55.2796 7.28208C54.3016 7.28208 53.4867 7.59832 52.8862 8.2308Z" fill="white"/>
<path id="Vector_7" d="M72.535 6.64105C73.35 7.47866 73.7574 8.75216 73.7574 10.4616V17.1026C73.7574 17.4958 73.6459 17.7992 73.4229 18.0128C73.1998 18.2265 72.891 18.3334 72.4964 18.3334C72.1018 18.3334 71.8187 18.2222 71.5957 18C71.3726 17.7778 71.2611 17.4787 71.2611 17.1026V16.1539C70.9351 16.8718 70.4505 17.4231 69.8071 17.8077C69.1637 18.1923 68.4131 18.3846 67.5552 18.3846C66.6974 18.3846 65.9768 18.218 65.2905 17.8846C64.6043 17.5513 64.0681 17.0855 63.6821 16.4872C63.296 15.8889 63.103 15.2223 63.103 14.4872C63.103 13.5812 63.3389 12.8675 63.8108 12.3462C64.2826 11.8248 65.0632 11.453 66.1527 11.2308C67.2421 11.0086 68.7391 10.8975 70.6435 10.8975H71.2354V10.1539C71.2354 9.19661 71.0381 8.5043 70.6435 8.07695C70.2489 7.6496 69.6141 7.43593 68.7391 7.43593C68.1386 7.43593 67.5724 7.51285 67.0405 7.66669C66.5087 7.82054 65.9253 8.04276 65.2905 8.33336C64.8273 8.58977 64.5013 8.71798 64.3126 8.71798C64.0552 8.71798 63.8451 8.62396 63.6821 8.43593C63.5191 8.24789 63.4376 8.00857 63.4376 7.71798C63.4376 7.46157 63.5105 7.23507 63.6563 7.03849C63.8022 6.84191 64.0381 6.6496 64.3641 6.46157C64.9645 6.13678 65.668 5.8761 66.4744 5.67952C67.2807 5.48293 68.0614 5.38464 68.8163 5.38464C70.4805 5.38464 71.7201 5.80345 72.535 6.64105ZM70.3346 15.5C70.9351 14.859 71.2354 14.0342 71.2354 13.0257V12.359H70.7721C69.4339 12.359 68.4045 12.4188 67.6839 12.5385C66.9633 12.6581 66.4486 12.859 66.1398 13.1411C65.831 13.4231 65.6766 13.8291 65.6766 14.359C65.6766 14.9744 65.8996 15.4787 66.3457 15.8718C66.7918 16.265 67.3494 16.4616 68.0185 16.4616C68.9621 16.4616 69.7342 16.1411 70.3346 15.5Z" fill="white"/>
<path id="Vector_8" d="M85.1321 6.4871C85.1321 6.86317 85.0378 7.14522 84.849 7.33325C84.6603 7.52129 84.3343 7.6324 83.8711 7.66659L83.099 7.74351C82.0182 7.84607 81.2161 8.22214 80.6928 8.87172C80.1695 9.52129 79.9079 10.3076 79.9079 11.2307V17.1025C79.9079 17.5127 79.7878 17.8204 79.5476 18.0256C79.3074 18.2307 78.9985 18.3333 78.6211 18.3333C78.2436 18.3333 77.9305 18.2307 77.6818 18.0256C77.433 17.8204 77.3086 17.5127 77.3086 17.1025V6.66659C77.3086 6.27343 77.433 5.97001 77.6818 5.75633C77.9305 5.54266 78.2436 5.43582 78.6211 5.43582C78.9642 5.43582 79.2516 5.54266 79.4832 5.75633C79.7148 5.97001 79.8306 6.26488 79.8306 6.64095V7.87172C80.1738 7.11958 80.6713 6.54693 81.3233 6.15377C81.9753 5.7606 82.713 5.52984 83.5365 5.46146L83.8968 5.43582C84.7204 5.38454 85.1321 5.73496 85.1321 6.4871Z" fill="white"/>
<path id="Vector_9" d="M98.0001 10.4359V17.1026C98.0001 17.4958 97.8843 17.7992 97.6527 18.0128C97.421 18.2265 97.0994 18.3334 96.6876 18.3334C96.2758 18.3334 95.9799 18.2222 95.7482 18C95.5166 17.7778 95.4008 17.4787 95.4008 17.1026V10.5641C95.4008 9.5043 95.1906 8.72652 94.7703 8.2308C94.35 7.73507 93.6937 7.48721 92.8016 7.48721C91.755 7.48721 90.9143 7.81199 90.2795 8.46157C89.6447 9.11114 89.3273 9.98293 89.3273 11.077V17.1026C89.3273 17.4787 89.2115 17.7778 88.9799 18C88.7482 18.2222 88.4351 18.3334 88.0405 18.3334C87.6459 18.3334 87.3285 18.2222 87.0883 18C86.8481 17.7778 86.728 17.4787 86.728 17.1026V6.66669C86.728 6.30772 86.8524 6.01285 87.1012 5.78208C87.35 5.55131 87.6631 5.43593 88.0405 5.43593C88.418 5.43593 88.7182 5.54704 88.9413 5.76926C89.1643 5.99148 89.2758 6.28208 89.2758 6.64105V7.69234C89.6876 6.9402 90.2623 6.36755 91.0001 5.97439C91.7378 5.58122 92.5699 5.38464 93.4964 5.38464C96.4989 5.38464 98.0001 7.0684 98.0001 10.4359Z" fill="white"/>
</g>
<path id="Vector_10" d="M17.2298 1.24357C17.7574 1.24357 18.1863 1.67092 18.1863 2.19656C18.1863 2.72221 17.7574 3.14956 17.2298 3.14956C16.7022 3.14956 16.2733 2.72221 16.2733 2.19656C16.2733 1.67092 16.7022 1.24357 17.2298 1.24357ZM17.2298 0.0683594C16.0502 0.0683594 15.0938 1.02135 15.0938 2.19656C15.0938 3.37178 16.0502 4.32477 17.2298 4.32477C18.4093 4.32477 19.3658 3.37178 19.3658 2.19656C19.3658 1.02135 18.4093 0.0683594 17.2298 0.0683594Z" fill="white"/>
<path id="Vector_11" d="M38.7703 1.24357C39.2979 1.24357 39.7268 1.67092 39.7268 2.19656C39.7268 2.72221 39.2979 3.14956 38.7703 3.14956C38.2427 3.14956 37.8138 2.72221 37.8138 2.19656C37.8138 1.67092 38.2427 1.24357 38.7703 1.24357ZM38.7703 0.0683594C37.5908 0.0683594 36.6343 1.02135 36.6343 2.19656C36.6343 3.37178 37.5908 4.32477 38.7703 4.32477C39.9498 4.32477 40.9063 3.37178 40.9063 2.19656C40.9063 1.02135 39.9498 0.0683594 38.7703 0.0683594Z" fill="white"/>
</g>
</g>
</svg>
