<svg width="16" height="17" viewBox="0 0 16 17" fill="none" xmlns="http://www.w3.org/2000/svg">
<path d="M13.3445 7.76019L0.413463 7.7602C0.303806 7.7602 0.19864 7.80376 0.121101 7.8813C0.0435612 7.95884 -7.29891e-07 8.064 -7.20304e-07 8.17366L-6.63503e-07 8.82339C-6.53917e-07 8.93304 0.0435613 9.03821 0.121101 9.11575C0.19864 9.19329 0.303806 9.23685 0.413463 9.23685L13.3445 9.23685L7.3338 15.2476C7.29531 15.2859 7.26477 15.3315 7.24394 15.3816C7.2231 15.4318 7.21238 15.4856 7.21238 15.5399C7.21238 15.5943 7.2231 15.6481 7.24394 15.6982C7.26477 15.7484 7.29531 15.794 7.3338 15.8323L7.79304 16.2916C7.83138 16.33 7.87695 16.3606 7.92712 16.3814C7.97729 16.4023 8.03109 16.413 8.08541 16.413C8.13974 16.413 8.19354 16.4023 8.24371 16.3814C8.29388 16.3606 8.33945 16.33 8.37779 16.2916L15.8792 8.79385C15.9566 8.71622 16 8.61108 16 8.50147C16 8.39187 15.9566 8.28673 15.8792 8.2091L8.37779 0.708438C8.33945 0.669951 8.29388 0.639414 8.24371 0.618577C8.19353 0.597741 8.13974 0.587016 8.08541 0.587016C8.03109 0.587016 7.97729 0.597741 7.92712 0.618577C7.87695 0.639414 7.83138 0.669951 7.79304 0.708438L7.3338 1.16768C7.29531 1.20602 7.26477 1.25159 7.24394 1.30176C7.2231 1.35193 7.21238 1.40573 7.21238 1.46005C7.21238 1.51438 7.2231 1.56817 7.24394 1.61835C7.26477 1.66852 7.29531 1.71409 7.3338 1.75243L13.3445 7.76019Z" fill="#731DD8"/>
</svg>
