<svg width="32" height="32" viewBox="0 0 32 32" fill="none" xmlns="http://www.w3.org/2000/svg">
<rect x="0.125" y="0.125" width="31.75" height="31.75" rx="3.875" fill="white"/>
<rect x="0.125" y="0.125" width="31.75" height="31.75" rx="3.875" stroke="#C57B57" stroke-width="0.25"/>
<path fill-rule="evenodd" clip-rule="evenodd" d="M22.7917 9H8.20833C7.82156 9 7.45063 9.15365 7.17714 9.42714C6.90365 9.70063 6.75 10.0716 6.75 10.4583V21.5417C6.75 21.9284 6.90365 22.2994 7.17714 22.5729C7.45063 22.8464 7.82156 23 8.20833 23H22.7917C23.1784 23 23.5494 22.8464 23.8229 22.5729C24.0964 22.2994 24.25 21.9284 24.25 21.5417V10.4583C24.25 10.0716 24.0964 9.70063 23.8229 9.42714C23.5494 9.15365 23.1784 9 22.7917 9ZM7.33333 21.5417V10.4583C7.33333 10.2263 7.42552 10.0037 7.58961 9.83961C7.75371 9.67552 7.97627 9.58333 8.20833 9.58333H12V22.4167H8.20833C7.97627 22.4167 7.75371 22.3245 7.58961 22.1604C7.42552 21.9963 7.33333 21.7737 7.33333 21.5417ZM23.6667 21.5417C23.6667 21.7737 23.5745 21.9963 23.4104 22.1604C23.2463 22.3245 23.0237 22.4167 22.7917 22.4167H12.5833V9.58333H22.7917C23.0237 9.58333 23.2463 9.67552 23.4104 9.83961C23.5745 10.0037 23.6667 10.2263 23.6667 10.4583V21.5417ZM8.79167 11.9178H10.5417C10.619 11.9178 10.6932 11.8871 10.7479 11.8324C10.8026 11.7777 10.8333 11.7035 10.8333 11.6261C10.8333 11.5488 10.8026 11.4746 10.7479 11.4199C10.6932 11.3652 10.619 11.3345 10.5417 11.3345H8.79167C8.71431 11.3345 8.64013 11.3652 8.58543 11.4199C8.53073 11.4746 8.5 11.5488 8.5 11.6261C8.5 11.7035 8.53073 11.7777 8.58543 11.8324C8.64013 11.8871 8.71431 11.9178 8.79167 11.9178ZM8.79167 13.0845H10.5417C10.619 13.0845 10.6932 13.1152 10.7479 13.1699C10.8026 13.2246 10.8333 13.2988 10.8333 13.3761C10.8333 13.4535 10.8026 13.5277 10.7479 13.5824C10.6932 13.6371 10.619 13.6678 10.5417 13.6678H8.79167C8.71431 13.6678 8.64013 13.6371 8.58543 13.5824C8.53073 13.5277 8.5 13.4535 8.5 13.3761C8.5 13.2988 8.53073 13.2246 8.58543 13.1699C8.64013 13.1152 8.71431 13.0845 8.79167 13.0845ZM10.5417 14.8345H8.79167C8.71431 14.8345 8.64013 14.8652 8.58543 14.9199C8.53073 14.9746 8.5 15.0488 8.5 15.1261C8.5 15.2035 8.53073 15.2777 8.58543 15.3324C8.64013 15.3871 8.71431 15.4178 8.79167 15.4178H10.5417C10.619 15.4178 10.6932 15.3871 10.7479 15.3324C10.8026 15.2777 10.8333 15.2035 10.8333 15.1261C10.8333 15.0488 10.8026 14.9746 10.7479 14.9199C10.6932 14.8652 10.619 14.8345 10.5417 14.8345ZM8.79167 16.5845H10.5417C10.619 16.5845 10.6932 16.6152 10.7479 16.6699C10.8026 16.7246 10.8333 16.7988 10.8333 16.8761C10.8333 16.9535 10.8026 17.0277 10.7479 17.0824C10.6932 17.1371 10.619 17.1678 10.5417 17.1678H8.79167C8.71431 17.1678 8.64013 17.1371 8.58543 17.0824C8.53073 17.0277 8.5 16.9535 8.5 16.8761C8.5 16.7988 8.53073 16.7246 8.58543 16.6699C8.64013 16.6152 8.71431 16.5845 8.79167 16.5845ZM10.5417 18.3345H8.79167C8.71431 18.3345 8.64013 18.3652 8.58543 18.4199C8.53073 18.4746 8.5 18.5488 8.5 18.6261C8.5 18.7035 8.53073 18.7777 8.58543 18.8324C8.64013 18.8871 8.71431 18.9178 8.79167 18.9178H10.5417C10.619 18.9178 10.6932 18.8871 10.7479 18.8324C10.8026 18.7777 10.8333 18.7035 10.8333 18.6261C10.8333 18.5488 10.8026 18.4746 10.7479 18.4199C10.6932 18.3652 10.619 18.3345 10.5417 18.3345ZM8.79167 20.0845H10.5417C10.619 20.0845 10.6932 20.1152 10.7479 20.1699C10.8026 20.2246 10.8333 20.2988 10.8333 20.3761C10.8333 20.4535 10.8026 20.5277 10.7479 20.5824C10.6932 20.6371 10.619 20.6678 10.5417 20.6678H8.79167C8.71431 20.6678 8.64013 20.6371 8.58543 20.5824C8.53073 20.5277 8.5 20.4535 8.5 20.3761C8.5 20.2988 8.53073 20.2246 8.58543 20.1699C8.64013 20.1152 8.71431 20.0845 8.79167 20.0845Z" fill="#633E2C"/>
</svg>
