<svg width="12" height="12" viewBox="0 0 12 12" fill="none" xmlns="http://www.w3.org/2000/svg">
<path d="M10.6475 5.00683C9.59392 4.59458 7.98723 3.59002 7.05 1.176C6.11276 3.59002 4.50607 4.59458 3.45252 5.00683C4.50607 5.41909 6.11276 6.42365 7.05 8.83767C7.98723 6.42365 9.59392 5.41909 10.6475 5.00683ZM4.08046 9.35611C3.60586 9.10994 3.02729 8.65028 2.61851 7.79857C2.20973 8.65028 1.63153 9.10957 1.15655 9.35611C1.63116 9.60229 2.20935 10.0616 2.61851 10.9137C3.02729 10.0619 3.60586 9.60229 4.08046 9.35611ZM2.89377 6.91711C3.45589 8.87809 4.89353 9.06731 4.97693 9.07687C5.11007 9.08862 5.22003 9.19114 5.23462 9.32672C5.25145 9.48067 5.13775 9.61919 4.98067 9.63536C4.97656 9.63573 3.47234 9.77829 2.89377 11.7937C2.86796 11.8855 2.79541 11.9619 2.69518 11.9895C2.54333 12.0314 2.38551 11.9443 2.34287 11.7948C1.78075 9.83377 0.343111 9.64455 0.259336 9.63536C0.126567 9.6236 0.0162377 9.52072 0.00165177 9.38551C-0.0151781 9.23155 0.098517 9.09303 0.255222 9.07687C0.25971 9.0765 1.76355 8.93394 2.34212 6.91821C2.36793 6.82635 2.44049 6.74993 2.54034 6.72237C2.69218 6.68048 2.85001 6.76756 2.89265 6.91674L2.89377 6.91711ZM7.32488 0.204879C8.5112 4.34289 11.6135 4.71399 11.7403 4.72759C11.8734 4.73934 11.9838 4.84186 11.9983 4.97744C12.0152 5.13139 11.9015 5.26991 11.7448 5.28608C11.7354 5.28718 8.53514 5.59068 7.32526 9.80769C7.29945 9.89954 7.2269 9.97597 7.12704 10.0035C6.9752 10.0454 6.81737 9.95833 6.77473 9.80916C5.58842 5.67078 2.48611 5.30004 2.35933 5.28645C2.22618 5.27469 2.11586 5.17218 2.1009 5.0366C2.08444 4.88264 2.19776 4.74412 2.35484 4.72795C2.36419 4.72685 5.56448 4.42335 6.77399 0.206348C6.79979 0.114491 6.87235 0.038065 6.97258 0.0105076C7.12442 -0.0313795 7.28225 0.0557016 7.32488 0.205246V0.204879Z" fill="black"/>
</svg>
